%TF.GenerationSoftware,KiCad,Pcbnew,9.0.7*%
%TF.CreationDate,2026-04-27T23:30:28+02:00*%
%TF.ProjectId,maleter_EDD_dc_CampaneraMireia_MartinAlba,6d616c65-7465-4725-9f45-44445f64635f,rev?*%
%TF.SameCoordinates,Original*%
%TF.FileFunction,Copper,L2,Bot*%
%TF.FilePolarity,Positive*%
%FSLAX46Y46*%
G04 Gerber Fmt 4.6, Leading zero omitted, Abs format (unit mm)*
G04 Created by KiCad (PCBNEW 9.0.7) date 2026-04-27 23:30:28*
%MOMM*%
%LPD*%
G01*
G04 APERTURE LIST*
G04 Aperture macros list*
%AMRoundRect*
0 Rectangle with rounded corners*
0 $1 Rounding radius*
0 $2 $3 $4 $5 $6 $7 $8 $9 X,Y pos of 4 corners*
0 Add a 4 corners polygon primitive as box body*
4,1,4,$2,$3,$4,$5,$6,$7,$8,$9,$2,$3,0*
0 Add four circle primitives for the rounded corners*
1,1,$1+$1,$2,$3*
1,1,$1+$1,$4,$5*
1,1,$1+$1,$6,$7*
1,1,$1+$1,$8,$9*
0 Add four rect primitives between the rounded corners*
20,1,$1+$1,$2,$3,$4,$5,0*
20,1,$1+$1,$4,$5,$6,$7,0*
20,1,$1+$1,$6,$7,$8,$9,0*
20,1,$1+$1,$8,$9,$2,$3,0*%
G04 Aperture macros list end*
%TA.AperFunction,ComponentPad*%
%ADD10R,1.100000X1.100000*%
%TD*%
%TA.AperFunction,ComponentPad*%
%ADD11C,1.100000*%
%TD*%
%TA.AperFunction,ComponentPad*%
%ADD12C,3.800000*%
%TD*%
%TA.AperFunction,ComponentPad*%
%ADD13C,0.630000*%
%TD*%
%TA.AperFunction,SMDPad,CuDef*%
%ADD14R,3.300000X2.600000*%
%TD*%
%TA.AperFunction,ComponentPad*%
%ADD15C,2.000000*%
%TD*%
%TA.AperFunction,ComponentPad*%
%ADD16R,1.600000X1.600000*%
%TD*%
%TA.AperFunction,ComponentPad*%
%ADD17C,1.600000*%
%TD*%
%TA.AperFunction,ComponentPad*%
%ADD18C,1.500000*%
%TD*%
%TA.AperFunction,ComponentPad*%
%ADD19RoundRect,0.250001X0.949999X0.949999X-0.949999X0.949999X-0.949999X-0.949999X0.949999X-0.949999X0*%
%TD*%
%TA.AperFunction,ComponentPad*%
%ADD20C,2.400000*%
%TD*%
%TA.AperFunction,ComponentPad*%
%ADD21R,1.905000X2.000000*%
%TD*%
%TA.AperFunction,ComponentPad*%
%ADD22O,1.905000X2.000000*%
%TD*%
%TA.AperFunction,ViaPad*%
%ADD23C,0.700000*%
%TD*%
%TA.AperFunction,ViaPad*%
%ADD24C,0.600000*%
%TD*%
%TA.AperFunction,Conductor*%
%ADD25C,0.200000*%
%TD*%
G04 APERTURE END LIST*
D10*
%TO.P,J4,1,Pin_1*%
%TO.N,/CONTROL UNIT/PGC*%
X143700000Y-90750000D03*
D11*
%TO.P,J4,2,Pin_2*%
%TO.N,/CONTROL UNIT/PGD*%
X142430000Y-90750000D03*
%TO.P,J4,3,Pin_3*%
%TO.N,3.3V*%
X141160000Y-90750000D03*
%TO.P,J4,4,Pin_4*%
%TO.N,GND*%
X139890000Y-90750000D03*
%TO.P,J4,5,Pin_5*%
%TO.N,MCLR*%
X138620000Y-90750000D03*
%TD*%
D12*
%TO.P,,1*%
%TO.N,N/C*%
X102700000Y-146750000D03*
%TD*%
%TO.P,,1*%
%TO.N,N/C*%
X103250000Y-92500000D03*
%TD*%
D13*
%TO.P,U5,9,PPAD*%
%TO.N,GND*%
X166925000Y-138192500D03*
X168225000Y-138192500D03*
X169525000Y-138192500D03*
D14*
X168225000Y-137542500D03*
D13*
X166925000Y-136892500D03*
X168225000Y-136892500D03*
X169525000Y-136892500D03*
%TD*%
D12*
%TO.P,,1*%
%TO.N,N/C*%
X175500000Y-146250000D03*
%TD*%
%TO.P,REF\u002A\u002A,1*%
%TO.N,N/C*%
X175500000Y-146250000D03*
%TD*%
D15*
%TO.P,SW5,1,1*%
%TO.N,GND*%
X142000000Y-95500000D03*
X148500000Y-95500000D03*
%TO.P,SW5,2,2*%
%TO.N,MCLR*%
X142000000Y-100000000D03*
X148500000Y-100000000D03*
%TD*%
D16*
%TO.P,J2,1,1*%
%TO.N,unconnected-(J2-Pad1)*%
X111050331Y-122095000D03*
D17*
%TO.P,J2,2,2*%
%TO.N,/CONTROL UNIT/CAN-*%
X111050331Y-124865000D03*
%TO.P,J2,3,3*%
%TO.N,GND*%
X111050331Y-127635000D03*
%TO.P,J2,4,4*%
%TO.N,unconnected-(J2-Pad4)*%
X111050331Y-130405000D03*
%TO.P,J2,5,5*%
%TO.N,unconnected-(J2-Pad5)*%
X111050331Y-133175000D03*
%TO.P,J2,6,6*%
%TO.N,unconnected-(J2-Pad6)*%
X108210331Y-123480000D03*
%TO.P,J2,7,7*%
%TO.N,/CONTROL UNIT/CAN+*%
X108210331Y-126250000D03*
%TO.P,J2,8,8*%
%TO.N,unconnected-(J2-Pad8)*%
X108210331Y-129020000D03*
%TO.P,J2,9,9*%
%TO.N,unconnected-(J2-Pad9)*%
X108210331Y-131790000D03*
%TD*%
D16*
%TO.P,J3,1,1*%
%TO.N,unconnected-(J3-Pad1)*%
X168640000Y-100275331D03*
D17*
%TO.P,J3,2,2*%
%TO.N,TX*%
X165870000Y-100275331D03*
%TO.P,J3,3,3*%
%TO.N,RX*%
X163100000Y-100275331D03*
%TO.P,J3,4,4*%
%TO.N,unconnected-(J3-Pad4)*%
X160330000Y-100275331D03*
%TO.P,J3,5,5*%
%TO.N,GND*%
X157560000Y-100275331D03*
%TO.P,J3,6,6*%
%TO.N,unconnected-(J3-Pad6)*%
X167255000Y-97435331D03*
%TO.P,J3,7,7*%
%TO.N,unconnected-(J3-Pad7)*%
X164485000Y-97435331D03*
%TO.P,J3,8,8*%
%TO.N,unconnected-(J3-Pad8)*%
X161715000Y-97435331D03*
%TO.P,J3,9,9*%
%TO.N,unconnected-(J3-Pad9)*%
X158945000Y-97435331D03*
%TD*%
D10*
%TO.P,J1,1,Pin_1*%
%TO.N,+12V*%
X160475000Y-147950000D03*
D11*
%TO.P,J1,2,Pin_2*%
%TO.N,GND*%
X159205000Y-147950000D03*
%TD*%
D12*
%TO.P,REF\u002A\u002A,1*%
%TO.N,N/C*%
X176000000Y-92150000D03*
%TD*%
D10*
%TO.P,J5,1,Pin_1*%
%TO.N,+12V*%
X148225000Y-147625000D03*
D11*
%TO.P,J5,2,Pin_2*%
%TO.N,/CONTROL UNIT/Conn_calefactor*%
X146955000Y-147625000D03*
%TD*%
D18*
%TO.P,Y1,1,1*%
%TO.N,/CONTROL UNIT/OSC2*%
X131312500Y-121680000D03*
%TO.P,Y1,2,2*%
%TO.N,/CONTROL UNIT/OSC1*%
X131312500Y-116800000D03*
%TD*%
D12*
%TO.P,REF\u002A\u002A,1*%
%TO.N,N/C*%
X103250000Y-92500000D03*
%TD*%
%TO.P,REF\u002A\u002A,1*%
%TO.N,N/C*%
X102700000Y-146750000D03*
%TD*%
D19*
%TO.P,M1,1,+*%
%TO.N,/ALIMENTACIO I MOTOR/OUT1*%
X171805000Y-124300000D03*
D20*
%TO.P,M1,2,-*%
%TO.N,/ALIMENTACIO I MOTOR/OUT2*%
X166725000Y-124300000D03*
%TD*%
D21*
%TO.P,Q1,1,G*%
%TO.N,CV*%
X143625000Y-143975000D03*
D22*
%TO.P,Q1,2,D*%
%TO.N,/CONTROL UNIT/Conn_calefactor*%
X146165000Y-143975000D03*
%TO.P,Q1,3,S*%
%TO.N,GND*%
X148705000Y-143975000D03*
%TD*%
D23*
%TO.N,GND*%
X134412500Y-123790000D03*
X143200000Y-118550000D03*
X121225000Y-147475000D03*
X138125000Y-95575000D03*
X167075000Y-131942500D03*
X118900000Y-136900000D03*
X127250000Y-115732843D03*
X127250000Y-105250000D03*
X151450000Y-118700000D03*
X155650000Y-128150000D03*
X155535370Y-121375000D03*
X137275000Y-95575000D03*
X134112500Y-113990000D03*
X135512500Y-115890000D03*
X127125000Y-95550000D03*
X105025000Y-112775000D03*
X109475000Y-100275000D03*
X127762500Y-122440000D03*
X133912500Y-124840000D03*
X131012500Y-112640000D03*
X171775000Y-131265000D03*
X136475000Y-95575000D03*
X135762500Y-122390000D03*
X153000000Y-116000000D03*
D24*
X113850000Y-111875000D03*
D23*
X105081710Y-135350000D03*
X136462500Y-115890000D03*
X154375000Y-128175000D03*
X106533333Y-135350000D03*
X165750000Y-140475000D03*
X119800000Y-136900000D03*
X129912500Y-112840000D03*
X128412500Y-124540000D03*
X135600000Y-144800000D03*
X105081710Y-141230747D03*
X105025000Y-111025000D03*
X120650000Y-136900000D03*
X135550000Y-143950000D03*
X110833333Y-135350000D03*
X127250000Y-107750000D03*
X124125000Y-126075000D03*
X139555883Y-113125000D03*
X170775000Y-144092500D03*
X155725000Y-126400000D03*
X129012500Y-113390000D03*
X159950000Y-108000000D03*
X105025000Y-111875000D03*
X127762500Y-118440000D03*
X105081710Y-145641306D03*
X108950000Y-114855000D03*
X134812500Y-122790000D03*
X128012500Y-115190000D03*
X138255000Y-122100000D03*
X132162500Y-112690000D03*
X113700000Y-135350000D03*
D24*
X112375000Y-111825000D03*
D23*
X127862500Y-116190000D03*
X162831968Y-135230000D03*
X149500000Y-111175000D03*
X152400000Y-126325000D03*
X109400000Y-135350000D03*
X136762500Y-122390000D03*
X136912500Y-121490000D03*
X107966667Y-135350000D03*
X169425000Y-144107500D03*
X150600000Y-118050000D03*
X150900000Y-114650000D03*
X129312500Y-125340000D03*
X120771027Y-142042642D03*
X105081710Y-139760560D03*
X170417500Y-131372500D03*
X135550000Y-143150000D03*
X107975000Y-100275000D03*
X132862500Y-125640000D03*
X110520000Y-114925000D03*
X158655720Y-104550000D03*
X114102787Y-147516285D03*
X127862500Y-123590000D03*
X139500000Y-111675000D03*
X105081710Y-142700933D03*
X153650000Y-116600000D03*
X119921027Y-142042642D03*
X121671027Y-142042642D03*
X168160000Y-131872500D03*
X133262500Y-113240000D03*
X112150000Y-114950000D03*
X130562500Y-125840000D03*
X105081710Y-144171120D03*
X106585223Y-147516285D03*
X138980735Y-122775735D03*
X136512500Y-116740000D03*
X112599274Y-147516285D03*
X158650000Y-103300000D03*
X127975000Y-95550000D03*
X105081710Y-147516285D03*
X143225000Y-121550000D03*
X112266667Y-135350000D03*
X126325000Y-95550000D03*
X111095761Y-147516285D03*
X127250000Y-115732843D03*
X116225000Y-128635000D03*
X121575000Y-126000000D03*
X131812500Y-125940000D03*
X134562500Y-114940000D03*
X128362500Y-114240000D03*
X127762500Y-121390000D03*
X154650000Y-126350000D03*
X162781968Y-133730000D03*
X127762500Y-119390000D03*
X105081710Y-136820187D03*
X108088736Y-147516285D03*
X162831968Y-134480000D03*
X159900000Y-104550000D03*
X127762500Y-120340000D03*
X165700000Y-139625000D03*
X157135370Y-121375000D03*
X127762500Y-117340000D03*
X146375000Y-139725000D03*
X105081710Y-138290373D03*
X134662500Y-115890000D03*
X165750000Y-141275000D03*
X109592249Y-147516285D03*
%TO.N,TX*%
X165250000Y-104250000D03*
X161250000Y-104500000D03*
%TO.N,SCL*%
X154734370Y-122375000D03*
X153534370Y-122375000D03*
%TO.N,/ALIMENTACIO I MOTOR/outamp*%
X154525000Y-139275000D03*
X156625000Y-138175000D03*
%TO.N,/ALIMENTACIO I MOTOR/PGND*%
X165025000Y-132900000D03*
X167600000Y-133100000D03*
%TD*%
D25*
%TO.N,GND*%
X144835000Y-138950000D02*
X144835000Y-139200000D01*
X159900000Y-104550000D02*
X160000000Y-104650000D01*
X139500000Y-111675000D02*
X139750000Y-111925000D01*
%TO.N,TX*%
X161500000Y-104250000D02*
X161250000Y-104500000D01*
X165250000Y-104250000D02*
X161500000Y-104250000D01*
%TO.N,SCL*%
X154734370Y-122375000D02*
X153534370Y-122375000D01*
%TO.N,/ALIMENTACIO I MOTOR/outamp*%
X154525000Y-139275000D02*
X155525000Y-139275000D01*
X155525000Y-139275000D02*
X156625000Y-138175000D01*
%TO.N,/ALIMENTACIO I MOTOR/PGND*%
X167400000Y-132900000D02*
X167600000Y-133100000D01*
X165025000Y-132900000D02*
X167400000Y-132900000D01*
%TD*%
%TA.AperFunction,Conductor*%
%TO.N,GND*%
G36*
X178942213Y-88121929D02*
G01*
X178988133Y-88174590D01*
X178999500Y-88226454D01*
X178999500Y-149125500D01*
X178979815Y-149192539D01*
X178927011Y-149238294D01*
X178875500Y-149249500D01*
X100925641Y-149249500D01*
X100858602Y-149229815D01*
X100812847Y-149177011D01*
X100801644Y-149124596D01*
X100805145Y-148644552D01*
X100809112Y-148100578D01*
X100829285Y-148033686D01*
X100882421Y-147988317D01*
X100951651Y-147978878D01*
X101014993Y-148008366D01*
X101031485Y-148025998D01*
X101117370Y-148137926D01*
X101117376Y-148137933D01*
X101312066Y-148332623D01*
X101312073Y-148332629D01*
X101440403Y-148431099D01*
X101530521Y-148500249D01*
X101665586Y-148578229D01*
X101768971Y-148637919D01*
X101768976Y-148637921D01*
X101768979Y-148637923D01*
X102023368Y-148743295D01*
X102289334Y-148814560D01*
X102562326Y-148850500D01*
X102562333Y-148850500D01*
X102837667Y-148850500D01*
X102837674Y-148850500D01*
X103110666Y-148814560D01*
X103376632Y-148743295D01*
X103631021Y-148637923D01*
X103869479Y-148500249D01*
X104087928Y-148332628D01*
X104282628Y-148137928D01*
X104450249Y-147919479D01*
X104577589Y-147698920D01*
X146204499Y-147698920D01*
X146233340Y-147843907D01*
X146233343Y-147843917D01*
X146289912Y-147980488D01*
X146289919Y-147980501D01*
X146372048Y-148103415D01*
X146372051Y-148103419D01*
X146476580Y-148207948D01*
X146476584Y-148207951D01*
X146599498Y-148290080D01*
X146599511Y-148290087D01*
X146736082Y-148346656D01*
X146736087Y-148346658D01*
X146736091Y-148346658D01*
X146736092Y-148346659D01*
X146881079Y-148375500D01*
X146881082Y-148375500D01*
X147028920Y-148375500D01*
X147154608Y-148350498D01*
X147173913Y-148346658D01*
X147310495Y-148290084D01*
X147345842Y-148266465D01*
X147412519Y-148245588D01*
X147479899Y-148264072D01*
X147517834Y-148300675D01*
X147530448Y-148319552D01*
X147596769Y-148363867D01*
X147596770Y-148363868D01*
X147655247Y-148375499D01*
X147655250Y-148375500D01*
X147655252Y-148375500D01*
X148794750Y-148375500D01*
X148794751Y-148375499D01*
X148809568Y-148372552D01*
X148853229Y-148363868D01*
X148853229Y-148363867D01*
X148853231Y-148363867D01*
X148919552Y-148319552D01*
X148963867Y-148253231D01*
X148963867Y-148253229D01*
X148963868Y-148253229D01*
X148975499Y-148194752D01*
X148975500Y-148194750D01*
X148975500Y-147871202D01*
X158405000Y-147871202D01*
X158405000Y-148028797D01*
X158435741Y-148183343D01*
X158435743Y-148183351D01*
X158496048Y-148328940D01*
X158529102Y-148378409D01*
X158529102Y-148378410D01*
X158866925Y-148040585D01*
X158878852Y-148085095D01*
X158924930Y-148164905D01*
X158990095Y-148230070D01*
X159069905Y-148276148D01*
X159114412Y-148288073D01*
X158776589Y-148625896D01*
X158826057Y-148658950D01*
X158826060Y-148658952D01*
X158971648Y-148719256D01*
X158971656Y-148719258D01*
X159126202Y-148749999D01*
X159126206Y-148750000D01*
X159283794Y-148750000D01*
X159283797Y-148749999D01*
X159438343Y-148719258D01*
X159438351Y-148719256D01*
X159583939Y-148658952D01*
X159583947Y-148658947D01*
X159625756Y-148631012D01*
X159692433Y-148610134D01*
X159759813Y-148628618D01*
X159777254Y-148642418D01*
X159846769Y-148688867D01*
X159846770Y-148688868D01*
X159905247Y-148700499D01*
X159905250Y-148700500D01*
X159905252Y-148700500D01*
X161044750Y-148700500D01*
X161044751Y-148700499D01*
X161059568Y-148697552D01*
X161103229Y-148688868D01*
X161103229Y-148688867D01*
X161103231Y-148688867D01*
X161169552Y-148644552D01*
X161213867Y-148578231D01*
X161213867Y-148578229D01*
X161213868Y-148578229D01*
X161225499Y-148519752D01*
X161225500Y-148519750D01*
X161225500Y-147380249D01*
X161225499Y-147380247D01*
X161213868Y-147321770D01*
X161213867Y-147321769D01*
X161169552Y-147255447D01*
X161103230Y-147211132D01*
X161103229Y-147211131D01*
X161044752Y-147199500D01*
X161044748Y-147199500D01*
X159905252Y-147199500D01*
X159905247Y-147199500D01*
X159846770Y-147211131D01*
X159846769Y-147211132D01*
X159770293Y-147262233D01*
X159769268Y-147260699D01*
X159720996Y-147287053D01*
X159651305Y-147282064D01*
X159625757Y-147268988D01*
X159583946Y-147241051D01*
X159583939Y-147241047D01*
X159438351Y-147180743D01*
X159438343Y-147180741D01*
X159283797Y-147150000D01*
X159126202Y-147150000D01*
X158971656Y-147180741D01*
X158971648Y-147180743D01*
X158826061Y-147241047D01*
X158776588Y-147274102D01*
X159114412Y-147611926D01*
X159069905Y-147623852D01*
X158990095Y-147669930D01*
X158924930Y-147735095D01*
X158878852Y-147814905D01*
X158866926Y-147859412D01*
X158529102Y-147521588D01*
X158496047Y-147571061D01*
X158435743Y-147716648D01*
X158435741Y-147716656D01*
X158405000Y-147871202D01*
X148975500Y-147871202D01*
X148975500Y-147055249D01*
X148975499Y-147055247D01*
X148963868Y-146996770D01*
X148963867Y-146996769D01*
X148919552Y-146930447D01*
X148853230Y-146886132D01*
X148853229Y-146886131D01*
X148794752Y-146874500D01*
X148794748Y-146874500D01*
X147655252Y-146874500D01*
X147655247Y-146874500D01*
X147596770Y-146886131D01*
X147596769Y-146886132D01*
X147530446Y-146930448D01*
X147517833Y-146949325D01*
X147464219Y-146994129D01*
X147394894Y-147002834D01*
X147345843Y-146983534D01*
X147310499Y-146959918D01*
X147310488Y-146959912D01*
X147173917Y-146903343D01*
X147173907Y-146903340D01*
X147028920Y-146874500D01*
X147028918Y-146874500D01*
X146881082Y-146874500D01*
X146881080Y-146874500D01*
X146736092Y-146903340D01*
X146736082Y-146903343D01*
X146599511Y-146959912D01*
X146599498Y-146959919D01*
X146476584Y-147042048D01*
X146476580Y-147042051D01*
X146372051Y-147146580D01*
X146372048Y-147146584D01*
X146289919Y-147269498D01*
X146289912Y-147269511D01*
X146233343Y-147406082D01*
X146233340Y-147406092D01*
X146204500Y-147551079D01*
X146204500Y-147551082D01*
X146204500Y-147698918D01*
X146204500Y-147698920D01*
X146204499Y-147698920D01*
X104577589Y-147698920D01*
X104587923Y-147681021D01*
X104693295Y-147426632D01*
X104764560Y-147160666D01*
X104800500Y-146887674D01*
X104800500Y-146612326D01*
X104764560Y-146339334D01*
X104703735Y-146112332D01*
X173399500Y-146112332D01*
X173399500Y-146387667D01*
X173399501Y-146387684D01*
X173435438Y-146660655D01*
X173435439Y-146660660D01*
X173435440Y-146660666D01*
X173435441Y-146660668D01*
X173506704Y-146926630D01*
X173612075Y-147181017D01*
X173612080Y-147181028D01*
X173693338Y-147321769D01*
X173749751Y-147419479D01*
X173749753Y-147419482D01*
X173749754Y-147419483D01*
X173917370Y-147637926D01*
X173917376Y-147637933D01*
X174112066Y-147832623D01*
X174112072Y-147832628D01*
X174330521Y-148000249D01*
X174477478Y-148085095D01*
X174568971Y-148137919D01*
X174568976Y-148137921D01*
X174568979Y-148137923D01*
X174823368Y-148243295D01*
X175089334Y-148314560D01*
X175362326Y-148350500D01*
X175362333Y-148350500D01*
X175637667Y-148350500D01*
X175637674Y-148350500D01*
X175910666Y-148314560D01*
X176176632Y-148243295D01*
X176431021Y-148137923D01*
X176669479Y-148000249D01*
X176887928Y-147832628D01*
X177082628Y-147637928D01*
X177250249Y-147419479D01*
X177387923Y-147181021D01*
X177493295Y-146926632D01*
X177564560Y-146660666D01*
X177600500Y-146387674D01*
X177600500Y-146112326D01*
X177564560Y-145839334D01*
X177493295Y-145573368D01*
X177387923Y-145318979D01*
X177387921Y-145318976D01*
X177387919Y-145318971D01*
X177305085Y-145175500D01*
X177250249Y-145080521D01*
X177082632Y-144862077D01*
X177082629Y-144862073D01*
X177082623Y-144862066D01*
X176887933Y-144667376D01*
X176887926Y-144667370D01*
X176669483Y-144499754D01*
X176669482Y-144499753D01*
X176669479Y-144499751D01*
X176522877Y-144415110D01*
X176431028Y-144362080D01*
X176431017Y-144362075D01*
X176176630Y-144256704D01*
X176043649Y-144221072D01*
X175910666Y-144185440D01*
X175910660Y-144185439D01*
X175910655Y-144185438D01*
X175637684Y-144149501D01*
X175637679Y-144149500D01*
X175637674Y-144149500D01*
X175362326Y-144149500D01*
X175362320Y-144149500D01*
X175362315Y-144149501D01*
X175089344Y-144185438D01*
X175089337Y-144185439D01*
X175089334Y-144185440D01*
X175064878Y-144191993D01*
X174823369Y-144256704D01*
X174568982Y-144362075D01*
X174568971Y-144362080D01*
X174330516Y-144499754D01*
X174112073Y-144667370D01*
X174112066Y-144667376D01*
X173917376Y-144862066D01*
X173917370Y-144862073D01*
X173749754Y-145080516D01*
X173612080Y-145318971D01*
X173612075Y-145318982D01*
X173506704Y-145573369D01*
X173435441Y-145839331D01*
X173435438Y-145839344D01*
X173399501Y-146112315D01*
X173399500Y-146112332D01*
X104703735Y-146112332D01*
X104693295Y-146073368D01*
X104587923Y-145818979D01*
X104587921Y-145818976D01*
X104587919Y-145818971D01*
X104538732Y-145733778D01*
X104450249Y-145580521D01*
X104380228Y-145489267D01*
X104282629Y-145362073D01*
X104282623Y-145362066D01*
X104087933Y-145167376D01*
X104087926Y-145167370D01*
X103869483Y-144999754D01*
X103869482Y-144999753D01*
X103869479Y-144999751D01*
X103700099Y-144901959D01*
X103631028Y-144862080D01*
X103631017Y-144862075D01*
X103376630Y-144756704D01*
X103243649Y-144721072D01*
X103110666Y-144685440D01*
X103110660Y-144685439D01*
X103110655Y-144685438D01*
X102837684Y-144649501D01*
X102837679Y-144649500D01*
X102837674Y-144649500D01*
X102562326Y-144649500D01*
X102562320Y-144649500D01*
X102562315Y-144649501D01*
X102289344Y-144685438D01*
X102289337Y-144685439D01*
X102289334Y-144685440D01*
X102233125Y-144700500D01*
X102023369Y-144756704D01*
X101768982Y-144862075D01*
X101768971Y-144862080D01*
X101546106Y-144990752D01*
X101539187Y-144994748D01*
X101530516Y-144999754D01*
X101312073Y-145167370D01*
X101312066Y-145167376D01*
X101117376Y-145362066D01*
X101051387Y-145448065D01*
X100994959Y-145489267D01*
X100925213Y-145493422D01*
X100864292Y-145459209D01*
X100831540Y-145397492D01*
X100829015Y-145371686D01*
X100846639Y-142955247D01*
X142472000Y-142955247D01*
X142472000Y-144994752D01*
X142483631Y-145053229D01*
X142483632Y-145053230D01*
X142527947Y-145119552D01*
X142594269Y-145163867D01*
X142594270Y-145163868D01*
X142652747Y-145175499D01*
X142652750Y-145175500D01*
X142652752Y-145175500D01*
X144597250Y-145175500D01*
X144597251Y-145175499D01*
X144612068Y-145172552D01*
X144655729Y-145163868D01*
X144655729Y-145163867D01*
X144655731Y-145163867D01*
X144722052Y-145119552D01*
X144766367Y-145053231D01*
X144766367Y-145053229D01*
X144766368Y-145053229D01*
X144777999Y-144994752D01*
X144778000Y-144994750D01*
X144778000Y-144211391D01*
X144797685Y-144144352D01*
X144850489Y-144098597D01*
X144919647Y-144088653D01*
X144983203Y-144117678D01*
X145020977Y-144176456D01*
X145024473Y-144191993D01*
X145040391Y-144292496D01*
X145040391Y-144292499D01*
X145096471Y-144465095D01*
X145114131Y-144499754D01*
X145178866Y-144626804D01*
X145285541Y-144773629D01*
X145413871Y-144901959D01*
X145560696Y-145008634D01*
X145648219Y-145053229D01*
X145722404Y-145091028D01*
X145895001Y-145147108D01*
X145895002Y-145147108D01*
X145895005Y-145147109D01*
X146074257Y-145175500D01*
X146074258Y-145175500D01*
X146255742Y-145175500D01*
X146255743Y-145175500D01*
X146434995Y-145147109D01*
X146434998Y-145147108D01*
X146434999Y-145147108D01*
X146607595Y-145091028D01*
X146607595Y-145091027D01*
X146607598Y-145091027D01*
X146769304Y-145008634D01*
X146916129Y-144901959D01*
X147044459Y-144773629D01*
X147151134Y-144626804D01*
X147233527Y-144465098D01*
X147267000Y-144362080D01*
X147291115Y-144287862D01*
X147292706Y-144288379D01*
X147323863Y-144234099D01*
X147385884Y-144201926D01*
X147455454Y-144208391D01*
X147510484Y-144251443D01*
X147530212Y-144299541D01*
X147530975Y-144299358D01*
X147532109Y-144304086D01*
X147590601Y-144484104D01*
X147676530Y-144652747D01*
X147787787Y-144805877D01*
X147787787Y-144805878D01*
X147921621Y-144939712D01*
X148074752Y-145050969D01*
X148243397Y-145136898D01*
X148423412Y-145195389D01*
X148530000Y-145212271D01*
X148530000Y-144497510D01*
X148632591Y-144525000D01*
X148777409Y-144525000D01*
X148880000Y-144497510D01*
X148880000Y-145212270D01*
X148986586Y-145195389D01*
X148986589Y-145195389D01*
X149166602Y-145136898D01*
X149335247Y-145050969D01*
X149488377Y-144939712D01*
X149488378Y-144939712D01*
X149622212Y-144805878D01*
X149622212Y-144805877D01*
X149733469Y-144652747D01*
X149819398Y-144484104D01*
X149877890Y-144304086D01*
X149902295Y-144150000D01*
X149227510Y-144150000D01*
X149255000Y-144047409D01*
X149255000Y-143902591D01*
X149227510Y-143800000D01*
X149902295Y-143800000D01*
X149877890Y-143645913D01*
X149819398Y-143465895D01*
X149733469Y-143297252D01*
X149622212Y-143144122D01*
X149622212Y-143144121D01*
X149488378Y-143010287D01*
X149335247Y-142899030D01*
X149166604Y-142813101D01*
X148986586Y-142754609D01*
X148880000Y-142737727D01*
X148880000Y-143452489D01*
X148777409Y-143425000D01*
X148632591Y-143425000D01*
X148530000Y-143452489D01*
X148530000Y-142737727D01*
X148423413Y-142754609D01*
X148243395Y-142813101D01*
X148074752Y-142899030D01*
X147921622Y-143010287D01*
X147921621Y-143010287D01*
X147787787Y-143144121D01*
X147787787Y-143144122D01*
X147676530Y-143297252D01*
X147590601Y-143465895D01*
X147532109Y-143645913D01*
X147530975Y-143650642D01*
X147529943Y-143650394D01*
X147502197Y-143708913D01*
X147442883Y-143745840D01*
X147373020Y-143744838D01*
X147314790Y-143706223D01*
X147292329Y-143661743D01*
X147291115Y-143662138D01*
X147233528Y-143484904D01*
X147222103Y-143462482D01*
X147151134Y-143323196D01*
X147044459Y-143176371D01*
X146916129Y-143048041D01*
X146769304Y-142941366D01*
X146686215Y-142899030D01*
X146607595Y-142858971D01*
X146434998Y-142802891D01*
X146300556Y-142781597D01*
X146255743Y-142774500D01*
X146074257Y-142774500D01*
X146014506Y-142783963D01*
X145895003Y-142802891D01*
X145895000Y-142802891D01*
X145722404Y-142858971D01*
X145560695Y-142941366D01*
X145476926Y-143002228D01*
X145413871Y-143048041D01*
X145413869Y-143048043D01*
X145413868Y-143048043D01*
X145285543Y-143176368D01*
X145285543Y-143176369D01*
X145285541Y-143176371D01*
X145239728Y-143239426D01*
X145178866Y-143323195D01*
X145096471Y-143484904D01*
X145040391Y-143657500D01*
X145040391Y-143657503D01*
X145024473Y-143758006D01*
X144994544Y-143821141D01*
X144935232Y-143858072D01*
X144865370Y-143857074D01*
X144807137Y-143818464D01*
X144779023Y-143754501D01*
X144778000Y-143738608D01*
X144778000Y-142955249D01*
X144777999Y-142955247D01*
X144766368Y-142896770D01*
X144766367Y-142896769D01*
X144722052Y-142830447D01*
X144655730Y-142786132D01*
X144655729Y-142786131D01*
X144597252Y-142774500D01*
X144597248Y-142774500D01*
X142652752Y-142774500D01*
X142652747Y-142774500D01*
X142594270Y-142786131D01*
X142594269Y-142786132D01*
X142527947Y-142830447D01*
X142483632Y-142896769D01*
X142483631Y-142896770D01*
X142472000Y-142955247D01*
X100846639Y-142955247D01*
X100874009Y-139202525D01*
X153974500Y-139202525D01*
X153974500Y-139347475D01*
X154012016Y-139487485D01*
X154012017Y-139487488D01*
X154084488Y-139613011D01*
X154084490Y-139613013D01*
X154084491Y-139613015D01*
X154186985Y-139715509D01*
X154186986Y-139715510D01*
X154186988Y-139715511D01*
X154312511Y-139787982D01*
X154312512Y-139787982D01*
X154312515Y-139787984D01*
X154452525Y-139825500D01*
X154452528Y-139825500D01*
X154597472Y-139825500D01*
X154597475Y-139825500D01*
X154737485Y-139787984D01*
X154863015Y-139715509D01*
X154965509Y-139613015D01*
X154965509Y-139613014D01*
X154966705Y-139611819D01*
X155028028Y-139578334D01*
X155054386Y-139575500D01*
X155564560Y-139575500D01*
X155564562Y-139575500D01*
X155640989Y-139555021D01*
X155709511Y-139515460D01*
X155765460Y-139459511D01*
X156357841Y-138867128D01*
X166325000Y-138867128D01*
X166339503Y-138940040D01*
X166339505Y-138940044D01*
X166394760Y-139022739D01*
X166477455Y-139077994D01*
X166477459Y-139077996D01*
X166550371Y-139092499D01*
X166550374Y-139092500D01*
X168050000Y-139092500D01*
X168400000Y-139092500D01*
X169899626Y-139092500D01*
X169899628Y-139092499D01*
X169972540Y-139077996D01*
X169972544Y-139077994D01*
X170055239Y-139022739D01*
X170110494Y-138940044D01*
X170110496Y-138940040D01*
X170124999Y-138867128D01*
X170125000Y-138867126D01*
X170125000Y-137717500D01*
X168400000Y-137717500D01*
X168400000Y-139092500D01*
X168050000Y-139092500D01*
X168050000Y-138159679D01*
X168060000Y-138159679D01*
X168060000Y-138225321D01*
X168085119Y-138285965D01*
X168131535Y-138332381D01*
X168192179Y-138357500D01*
X168257821Y-138357500D01*
X168318465Y-138332381D01*
X168364881Y-138285965D01*
X168390000Y-138225321D01*
X168390000Y-138159679D01*
X168364881Y-138099035D01*
X168318465Y-138052619D01*
X168257821Y-138027500D01*
X168192179Y-138027500D01*
X168131535Y-138052619D01*
X168085119Y-138099035D01*
X168060000Y-138159679D01*
X168050000Y-138159679D01*
X168050000Y-137717500D01*
X166325000Y-137717500D01*
X166325000Y-138867128D01*
X156357841Y-138867128D01*
X156463151Y-138761818D01*
X156524474Y-138728334D01*
X156550832Y-138725500D01*
X156697472Y-138725500D01*
X156697475Y-138725500D01*
X156837485Y-138687984D01*
X156963015Y-138615509D01*
X157065509Y-138513015D01*
X157137984Y-138387485D01*
X157175500Y-138247475D01*
X157175500Y-138102525D01*
X157137984Y-137962515D01*
X157065509Y-137836985D01*
X156963015Y-137734491D01*
X156963013Y-137734490D01*
X156963011Y-137734488D01*
X156837488Y-137662017D01*
X156837489Y-137662017D01*
X156826006Y-137658940D01*
X156697475Y-137624500D01*
X156552525Y-137624500D01*
X156423993Y-137658940D01*
X156412511Y-137662017D01*
X156286988Y-137734488D01*
X156286982Y-137734493D01*
X156184493Y-137836982D01*
X156184488Y-137836988D01*
X156112017Y-137962511D01*
X156112016Y-137962515D01*
X156074500Y-138102525D01*
X156074500Y-138102527D01*
X156074500Y-138249166D01*
X156054815Y-138316205D01*
X156038181Y-138336847D01*
X155436848Y-138938181D01*
X155375525Y-138971666D01*
X155349167Y-138974500D01*
X155054386Y-138974500D01*
X154987347Y-138954815D01*
X154966705Y-138938181D01*
X154863017Y-138834493D01*
X154863011Y-138834488D01*
X154737488Y-138762017D01*
X154737489Y-138762017D01*
X154726006Y-138758940D01*
X154597475Y-138724500D01*
X154452525Y-138724500D01*
X154323993Y-138758940D01*
X154312511Y-138762017D01*
X154186988Y-138834488D01*
X154186982Y-138834493D01*
X154084493Y-138936982D01*
X154084488Y-138936988D01*
X154012017Y-139062511D01*
X154012016Y-139062515D01*
X153974500Y-139202525D01*
X100874009Y-139202525D01*
X100895777Y-136217871D01*
X166325000Y-136217871D01*
X166325000Y-137367500D01*
X168050000Y-137367500D01*
X168400000Y-137367500D01*
X170125000Y-137367500D01*
X170125000Y-136217873D01*
X170124999Y-136217871D01*
X170110496Y-136144959D01*
X170110494Y-136144955D01*
X170055239Y-136062260D01*
X169972544Y-136007005D01*
X169972540Y-136007003D01*
X169899627Y-135992500D01*
X168400000Y-135992500D01*
X168400000Y-137367500D01*
X168050000Y-137367500D01*
X168050000Y-136859679D01*
X168060000Y-136859679D01*
X168060000Y-136925321D01*
X168085119Y-136985965D01*
X168131535Y-137032381D01*
X168192179Y-137057500D01*
X168257821Y-137057500D01*
X168318465Y-137032381D01*
X168364881Y-136985965D01*
X168390000Y-136925321D01*
X168390000Y-136859679D01*
X168364881Y-136799035D01*
X168318465Y-136752619D01*
X168257821Y-136727500D01*
X168192179Y-136727500D01*
X168131535Y-136752619D01*
X168085119Y-136799035D01*
X168060000Y-136859679D01*
X168050000Y-136859679D01*
X168050000Y-135992500D01*
X166550373Y-135992500D01*
X166477459Y-136007003D01*
X166477455Y-136007005D01*
X166394760Y-136062260D01*
X166339505Y-136144955D01*
X166339503Y-136144959D01*
X166325000Y-136217871D01*
X100895777Y-136217871D01*
X100917251Y-133273543D01*
X110049830Y-133273543D01*
X110088278Y-133466829D01*
X110088281Y-133466839D01*
X110163695Y-133648907D01*
X110163702Y-133648920D01*
X110273191Y-133812781D01*
X110273194Y-133812785D01*
X110412545Y-133952136D01*
X110412549Y-133952139D01*
X110576410Y-134061628D01*
X110576423Y-134061635D01*
X110758491Y-134137049D01*
X110758496Y-134137051D01*
X110758500Y-134137051D01*
X110758501Y-134137052D01*
X110951787Y-134175500D01*
X110951790Y-134175500D01*
X111148874Y-134175500D01*
X111278913Y-134149632D01*
X111342166Y-134137051D01*
X111524245Y-134061632D01*
X111688113Y-133952139D01*
X111827470Y-133812782D01*
X111936963Y-133648914D01*
X112012382Y-133466835D01*
X112043084Y-133312487D01*
X112050831Y-133273543D01*
X112050831Y-133076456D01*
X112012383Y-132883170D01*
X112012380Y-132883159D01*
X112005625Y-132866852D01*
X112005624Y-132866850D01*
X111989335Y-132827525D01*
X164474500Y-132827525D01*
X164474500Y-132972475D01*
X164502362Y-133076456D01*
X164512017Y-133112488D01*
X164584488Y-133238011D01*
X164584490Y-133238013D01*
X164584491Y-133238015D01*
X164686985Y-133340509D01*
X164686986Y-133340510D01*
X164686988Y-133340511D01*
X164812511Y-133412982D01*
X164812512Y-133412982D01*
X164812515Y-133412984D01*
X164952525Y-133450500D01*
X164952528Y-133450500D01*
X165097472Y-133450500D01*
X165097475Y-133450500D01*
X165237485Y-133412984D01*
X165363015Y-133340509D01*
X165465509Y-133238015D01*
X165465509Y-133238014D01*
X165466705Y-133236819D01*
X165528028Y-133203334D01*
X165554386Y-133200500D01*
X166961861Y-133200500D01*
X167028900Y-133220185D01*
X167074655Y-133272989D01*
X167081636Y-133292406D01*
X167087016Y-133312487D01*
X167087017Y-133312488D01*
X167159488Y-133438011D01*
X167159490Y-133438013D01*
X167159491Y-133438015D01*
X167261985Y-133540509D01*
X167261986Y-133540510D01*
X167261988Y-133540511D01*
X167387511Y-133612982D01*
X167387512Y-133612982D01*
X167387515Y-133612984D01*
X167527525Y-133650500D01*
X167527528Y-133650500D01*
X167672472Y-133650500D01*
X167672475Y-133650500D01*
X167812485Y-133612984D01*
X167938015Y-133540509D01*
X168040509Y-133438015D01*
X168112984Y-133312485D01*
X168150500Y-133172475D01*
X168150500Y-133027525D01*
X168112984Y-132887515D01*
X168110475Y-132883170D01*
X168040511Y-132761988D01*
X168040506Y-132761982D01*
X167938017Y-132659493D01*
X167938011Y-132659488D01*
X167812488Y-132587017D01*
X167812489Y-132587017D01*
X167801006Y-132583940D01*
X167672475Y-132549500D01*
X167527525Y-132549500D01*
X167443519Y-132572009D01*
X167387513Y-132587016D01*
X167380162Y-132590062D01*
X167332711Y-132599500D01*
X165554386Y-132599500D01*
X165487347Y-132579815D01*
X165466705Y-132563181D01*
X165363017Y-132459493D01*
X165363011Y-132459488D01*
X165237488Y-132387017D01*
X165237489Y-132387017D01*
X165226006Y-132383940D01*
X165097475Y-132349500D01*
X164952525Y-132349500D01*
X164823993Y-132383940D01*
X164812511Y-132387017D01*
X164686988Y-132459488D01*
X164686982Y-132459493D01*
X164584493Y-132561982D01*
X164584488Y-132561988D01*
X164512017Y-132687511D01*
X164512016Y-132687515D01*
X164474500Y-132827525D01*
X111989335Y-132827525D01*
X111936966Y-132701092D01*
X111936959Y-132701079D01*
X111827470Y-132537218D01*
X111827467Y-132537214D01*
X111688116Y-132397863D01*
X111688112Y-132397860D01*
X111524251Y-132288371D01*
X111524238Y-132288364D01*
X111342170Y-132212950D01*
X111342160Y-132212947D01*
X111148874Y-132174500D01*
X111148872Y-132174500D01*
X110951790Y-132174500D01*
X110951788Y-132174500D01*
X110758501Y-132212947D01*
X110758491Y-132212950D01*
X110576423Y-132288364D01*
X110576410Y-132288371D01*
X110412549Y-132397860D01*
X110412545Y-132397863D01*
X110273194Y-132537214D01*
X110273191Y-132537218D01*
X110163702Y-132701079D01*
X110163695Y-132701092D01*
X110088281Y-132883160D01*
X110088278Y-132883170D01*
X110049831Y-133076456D01*
X110049831Y-133076459D01*
X110049831Y-133273541D01*
X110049831Y-133273543D01*
X110049830Y-133273543D01*
X100917251Y-133273543D01*
X100927352Y-131888543D01*
X107209830Y-131888543D01*
X107248278Y-132081829D01*
X107248281Y-132081839D01*
X107323695Y-132263907D01*
X107323702Y-132263920D01*
X107433191Y-132427781D01*
X107433194Y-132427785D01*
X107572545Y-132567136D01*
X107572549Y-132567139D01*
X107736410Y-132676628D01*
X107736423Y-132676635D01*
X107918491Y-132752049D01*
X107918496Y-132752051D01*
X107918500Y-132752051D01*
X107918501Y-132752052D01*
X108111787Y-132790500D01*
X108111790Y-132790500D01*
X108308874Y-132790500D01*
X108452240Y-132761982D01*
X108502166Y-132752051D01*
X108684245Y-132676632D01*
X108848113Y-132567139D01*
X108987470Y-132427782D01*
X109096963Y-132263914D01*
X109172382Y-132081835D01*
X109210831Y-131888541D01*
X109210831Y-131691459D01*
X109210831Y-131691456D01*
X109172383Y-131498170D01*
X109172382Y-131498169D01*
X109172382Y-131498165D01*
X109118074Y-131367052D01*
X109096966Y-131316092D01*
X109096959Y-131316079D01*
X108987470Y-131152218D01*
X108987467Y-131152214D01*
X108848116Y-131012863D01*
X108848112Y-131012860D01*
X108684251Y-130903371D01*
X108684238Y-130903364D01*
X108502170Y-130827950D01*
X108502160Y-130827947D01*
X108308874Y-130789500D01*
X108308872Y-130789500D01*
X108111790Y-130789500D01*
X108111788Y-130789500D01*
X107918501Y-130827947D01*
X107918491Y-130827950D01*
X107736423Y-130903364D01*
X107736410Y-130903371D01*
X107572549Y-131012860D01*
X107572545Y-131012863D01*
X107433194Y-131152214D01*
X107433191Y-131152218D01*
X107323702Y-131316079D01*
X107323695Y-131316092D01*
X107248281Y-131498160D01*
X107248278Y-131498170D01*
X107209831Y-131691456D01*
X107209831Y-131691459D01*
X107209831Y-131888541D01*
X107209831Y-131888543D01*
X107209830Y-131888543D01*
X100927352Y-131888543D01*
X100937453Y-130503543D01*
X110049830Y-130503543D01*
X110088278Y-130696829D01*
X110088281Y-130696839D01*
X110163695Y-130878907D01*
X110163702Y-130878920D01*
X110273191Y-131042781D01*
X110273194Y-131042785D01*
X110412545Y-131182136D01*
X110412549Y-131182139D01*
X110576410Y-131291628D01*
X110576423Y-131291635D01*
X110758491Y-131367049D01*
X110758496Y-131367051D01*
X110758500Y-131367051D01*
X110758501Y-131367052D01*
X110951787Y-131405500D01*
X110951790Y-131405500D01*
X111148874Y-131405500D01*
X111278913Y-131379632D01*
X111342166Y-131367051D01*
X111524245Y-131291632D01*
X111688113Y-131182139D01*
X111827470Y-131042782D01*
X111936963Y-130878914D01*
X112012382Y-130696835D01*
X112050831Y-130503541D01*
X112050831Y-130306459D01*
X112050831Y-130306456D01*
X112012383Y-130113170D01*
X112012382Y-130113169D01*
X112012382Y-130113165D01*
X111958074Y-129982052D01*
X111936966Y-129931092D01*
X111936959Y-129931079D01*
X111827470Y-129767218D01*
X111827467Y-129767214D01*
X111688116Y-129627863D01*
X111688112Y-129627860D01*
X111524251Y-129518371D01*
X111524238Y-129518364D01*
X111342170Y-129442950D01*
X111342160Y-129442947D01*
X111148874Y-129404500D01*
X111148872Y-129404500D01*
X110951790Y-129404500D01*
X110951788Y-129404500D01*
X110758501Y-129442947D01*
X110758491Y-129442950D01*
X110576423Y-129518364D01*
X110576410Y-129518371D01*
X110412549Y-129627860D01*
X110412545Y-129627863D01*
X110273194Y-129767214D01*
X110273191Y-129767218D01*
X110163702Y-129931079D01*
X110163695Y-129931092D01*
X110088281Y-130113160D01*
X110088278Y-130113170D01*
X110049831Y-130306456D01*
X110049831Y-130306459D01*
X110049831Y-130503541D01*
X110049831Y-130503543D01*
X110049830Y-130503543D01*
X100937453Y-130503543D01*
X100947554Y-129118543D01*
X107209830Y-129118543D01*
X107248278Y-129311829D01*
X107248281Y-129311839D01*
X107323695Y-129493907D01*
X107323702Y-129493920D01*
X107433191Y-129657781D01*
X107433194Y-129657785D01*
X107572545Y-129797136D01*
X107572549Y-129797139D01*
X107736410Y-129906628D01*
X107736423Y-129906635D01*
X107918491Y-129982049D01*
X107918496Y-129982051D01*
X107918500Y-129982051D01*
X107918501Y-129982052D01*
X108111787Y-130020500D01*
X108111790Y-130020500D01*
X108308874Y-130020500D01*
X108438913Y-129994632D01*
X108502166Y-129982051D01*
X108684245Y-129906632D01*
X108848113Y-129797139D01*
X108987470Y-129657782D01*
X109096963Y-129493914D01*
X109172382Y-129311835D01*
X109210831Y-129118541D01*
X109210831Y-128921459D01*
X109210831Y-128921456D01*
X109172383Y-128728170D01*
X109172382Y-128728169D01*
X109172382Y-128728165D01*
X109137789Y-128644649D01*
X109096966Y-128546092D01*
X109096959Y-128546079D01*
X109075402Y-128513817D01*
X108987470Y-128382218D01*
X108987467Y-128382214D01*
X108848116Y-128242863D01*
X108848112Y-128242860D01*
X108684251Y-128133371D01*
X108684238Y-128133364D01*
X108502170Y-128057950D01*
X108502160Y-128057947D01*
X108308874Y-128019500D01*
X108308872Y-128019500D01*
X108111790Y-128019500D01*
X108111788Y-128019500D01*
X107918501Y-128057947D01*
X107918491Y-128057950D01*
X107736423Y-128133364D01*
X107736410Y-128133371D01*
X107572549Y-128242860D01*
X107572545Y-128242863D01*
X107433194Y-128382214D01*
X107433191Y-128382218D01*
X107323702Y-128546079D01*
X107323695Y-128546092D01*
X107248281Y-128728160D01*
X107248278Y-128728170D01*
X107209831Y-128921456D01*
X107209831Y-128921459D01*
X107209831Y-129118541D01*
X107209831Y-129118543D01*
X107209830Y-129118543D01*
X100947554Y-129118543D01*
X100959129Y-127531579D01*
X110000331Y-127531579D01*
X110000331Y-127738420D01*
X110040679Y-127941266D01*
X110040681Y-127941274D01*
X110119831Y-128132359D01*
X110194193Y-128243649D01*
X110593719Y-127844123D01*
X110650232Y-127942007D01*
X110743324Y-128035099D01*
X110841206Y-128091611D01*
X110441680Y-128491137D01*
X110552971Y-128565499D01*
X110744056Y-128644649D01*
X110744064Y-128644651D01*
X110946910Y-128684999D01*
X110946914Y-128685000D01*
X111153748Y-128685000D01*
X111153751Y-128684999D01*
X111356597Y-128644651D01*
X111356605Y-128644649D01*
X111547690Y-128565499D01*
X111658980Y-128491137D01*
X111259455Y-128091611D01*
X111357338Y-128035099D01*
X111450430Y-127942007D01*
X111506942Y-127844123D01*
X111906468Y-128243649D01*
X111980830Y-128132359D01*
X112059980Y-127941274D01*
X112059982Y-127941266D01*
X112100330Y-127738420D01*
X112100331Y-127738417D01*
X112100331Y-127531583D01*
X112100330Y-127531579D01*
X112059982Y-127328733D01*
X112059980Y-127328725D01*
X111980830Y-127137640D01*
X111906468Y-127026349D01*
X111506942Y-127425875D01*
X111450430Y-127327993D01*
X111357338Y-127234901D01*
X111259455Y-127178388D01*
X111658980Y-126778862D01*
X111658980Y-126778861D01*
X111547690Y-126704500D01*
X111356605Y-126625350D01*
X111356597Y-126625348D01*
X111153751Y-126585000D01*
X110946910Y-126585000D01*
X110744064Y-126625348D01*
X110744056Y-126625350D01*
X110552972Y-126704500D01*
X110552962Y-126704505D01*
X110441681Y-126778861D01*
X110441681Y-126778862D01*
X110841207Y-127178388D01*
X110743324Y-127234901D01*
X110650232Y-127327993D01*
X110593719Y-127425876D01*
X110194193Y-127026350D01*
X110194192Y-127026350D01*
X110119836Y-127137631D01*
X110119831Y-127137641D01*
X110040681Y-127328725D01*
X110040679Y-127328733D01*
X110000331Y-127531579D01*
X100959129Y-127531579D01*
X100967757Y-126348543D01*
X107209830Y-126348543D01*
X107248278Y-126541829D01*
X107248281Y-126541839D01*
X107323695Y-126723907D01*
X107323702Y-126723920D01*
X107433191Y-126887781D01*
X107433194Y-126887785D01*
X107572545Y-127027136D01*
X107572549Y-127027139D01*
X107736410Y-127136628D01*
X107736423Y-127136635D01*
X107918491Y-127212049D01*
X107918496Y-127212051D01*
X107918500Y-127212051D01*
X107918501Y-127212052D01*
X108111787Y-127250500D01*
X108111790Y-127250500D01*
X108308874Y-127250500D01*
X108438913Y-127224632D01*
X108502166Y-127212051D01*
X108681809Y-127137641D01*
X108684238Y-127136635D01*
X108684238Y-127136634D01*
X108684245Y-127136632D01*
X108848113Y-127027139D01*
X108987470Y-126887782D01*
X109060249Y-126778861D01*
X109075403Y-126756182D01*
X109075404Y-126756180D01*
X109096956Y-126723925D01*
X109096959Y-126723920D01*
X109096963Y-126723914D01*
X109105005Y-126704500D01*
X109137790Y-126625348D01*
X109172382Y-126541835D01*
X109210831Y-126348541D01*
X109210831Y-126151459D01*
X109210831Y-126151456D01*
X109172383Y-125958170D01*
X109172382Y-125958169D01*
X109172382Y-125958165D01*
X109118074Y-125827052D01*
X109096966Y-125776092D01*
X109096959Y-125776079D01*
X108987470Y-125612218D01*
X108987467Y-125612214D01*
X108848116Y-125472863D01*
X108848112Y-125472860D01*
X108684251Y-125363371D01*
X108684238Y-125363364D01*
X108502170Y-125287950D01*
X108502160Y-125287947D01*
X108308874Y-125249500D01*
X108308872Y-125249500D01*
X108111790Y-125249500D01*
X108111788Y-125249500D01*
X107918501Y-125287947D01*
X107918491Y-125287950D01*
X107736423Y-125363364D01*
X107736410Y-125363371D01*
X107572549Y-125472860D01*
X107572545Y-125472863D01*
X107433194Y-125612214D01*
X107433191Y-125612218D01*
X107323702Y-125776079D01*
X107323695Y-125776092D01*
X107248281Y-125958160D01*
X107248278Y-125958170D01*
X107209831Y-126151456D01*
X107209831Y-126151459D01*
X107209831Y-126348541D01*
X107209831Y-126348543D01*
X107209830Y-126348543D01*
X100967757Y-126348543D01*
X100977859Y-124963543D01*
X110049830Y-124963543D01*
X110088278Y-125156829D01*
X110088281Y-125156839D01*
X110163695Y-125338907D01*
X110163702Y-125338920D01*
X110273191Y-125502781D01*
X110273194Y-125502785D01*
X110412545Y-125642136D01*
X110412549Y-125642139D01*
X110576410Y-125751628D01*
X110576423Y-125751635D01*
X110758491Y-125827049D01*
X110758496Y-125827051D01*
X110758500Y-125827051D01*
X110758501Y-125827052D01*
X110951787Y-125865500D01*
X110951790Y-125865500D01*
X111148874Y-125865500D01*
X111278913Y-125839632D01*
X111342166Y-125827051D01*
X111524245Y-125751632D01*
X111688113Y-125642139D01*
X111827470Y-125502782D01*
X111936963Y-125338914D01*
X112012382Y-125156835D01*
X112050831Y-124963541D01*
X112050831Y-124766459D01*
X112050831Y-124766456D01*
X112012383Y-124573170D01*
X112012382Y-124573169D01*
X112012382Y-124573165D01*
X111958074Y-124442052D01*
X111936966Y-124391092D01*
X111936959Y-124391079D01*
X111845230Y-124253797D01*
X111827470Y-124227218D01*
X111827467Y-124227214D01*
X111790031Y-124189778D01*
X165324500Y-124189778D01*
X165324500Y-124410222D01*
X165335631Y-124480500D01*
X165358985Y-124627952D01*
X165427103Y-124837603D01*
X165427104Y-124837606D01*
X165527187Y-125034025D01*
X165656752Y-125212358D01*
X165656756Y-125212363D01*
X165812636Y-125368243D01*
X165812641Y-125368247D01*
X165956634Y-125472863D01*
X165990978Y-125497815D01*
X166119375Y-125563237D01*
X166187393Y-125597895D01*
X166187396Y-125597896D01*
X166231476Y-125612218D01*
X166397049Y-125666015D01*
X166614778Y-125700500D01*
X166614779Y-125700500D01*
X166835221Y-125700500D01*
X166835222Y-125700500D01*
X167052951Y-125666015D01*
X167262606Y-125597895D01*
X167459022Y-125497815D01*
X167637365Y-125368242D01*
X167793242Y-125212365D01*
X167922815Y-125034022D01*
X168022895Y-124837606D01*
X168091015Y-124627951D01*
X168125500Y-124410222D01*
X168125500Y-124189778D01*
X168091015Y-123972049D01*
X168022895Y-123762394D01*
X168022895Y-123762393D01*
X167988237Y-123694375D01*
X167922815Y-123565978D01*
X167906260Y-123543192D01*
X167793247Y-123387641D01*
X167793243Y-123387636D01*
X167701338Y-123295731D01*
X170404500Y-123295731D01*
X170404500Y-125304258D01*
X170407354Y-125334698D01*
X170407354Y-125334699D01*
X170452206Y-125462881D01*
X170452207Y-125462882D01*
X170532850Y-125572150D01*
X170642118Y-125652793D01*
X170770302Y-125697646D01*
X170770301Y-125697646D01*
X170774271Y-125698018D01*
X170800735Y-125700500D01*
X172809264Y-125700499D01*
X172839698Y-125697646D01*
X172967882Y-125652793D01*
X173077150Y-125572150D01*
X173157793Y-125462882D01*
X173202646Y-125334698D01*
X173205500Y-125304265D01*
X173205499Y-123295736D01*
X173202646Y-123265302D01*
X173157793Y-123137118D01*
X173077150Y-123027850D01*
X172967882Y-122947207D01*
X172967881Y-122947206D01*
X172839695Y-122902353D01*
X172839698Y-122902353D01*
X172809268Y-122899500D01*
X170800741Y-122899500D01*
X170770301Y-122902354D01*
X170770300Y-122902354D01*
X170642118Y-122947206D01*
X170532850Y-123027850D01*
X170452206Y-123137118D01*
X170407353Y-123265302D01*
X170404500Y-123295731D01*
X167701338Y-123295731D01*
X167637363Y-123231756D01*
X167637358Y-123231752D01*
X167459025Y-123102187D01*
X167459024Y-123102186D01*
X167459022Y-123102185D01*
X167396096Y-123070122D01*
X167262606Y-123002104D01*
X167262603Y-123002103D01*
X167052952Y-122933985D01*
X166853241Y-122902354D01*
X166835222Y-122899500D01*
X166614778Y-122899500D01*
X166596759Y-122902354D01*
X166397047Y-122933985D01*
X166187396Y-123002103D01*
X166187393Y-123002104D01*
X165990974Y-123102187D01*
X165812641Y-123231752D01*
X165812636Y-123231756D01*
X165656756Y-123387636D01*
X165656752Y-123387641D01*
X165527187Y-123565974D01*
X165427104Y-123762393D01*
X165427103Y-123762396D01*
X165358985Y-123972047D01*
X165340642Y-124087860D01*
X165324500Y-124189778D01*
X111790031Y-124189778D01*
X111688116Y-124087863D01*
X111688112Y-124087860D01*
X111524251Y-123978371D01*
X111524238Y-123978364D01*
X111342170Y-123902950D01*
X111342160Y-123902947D01*
X111148874Y-123864500D01*
X111148872Y-123864500D01*
X110951790Y-123864500D01*
X110951788Y-123864500D01*
X110758501Y-123902947D01*
X110758491Y-123902950D01*
X110576423Y-123978364D01*
X110576410Y-123978371D01*
X110412549Y-124087860D01*
X110412545Y-124087863D01*
X110273194Y-124227214D01*
X110273191Y-124227218D01*
X110163702Y-124391079D01*
X110163695Y-124391092D01*
X110088281Y-124573160D01*
X110088278Y-124573170D01*
X110049831Y-124766456D01*
X110049831Y-124766459D01*
X110049831Y-124963541D01*
X110049831Y-124963543D01*
X110049830Y-124963543D01*
X100977859Y-124963543D01*
X100987960Y-123578543D01*
X107209830Y-123578543D01*
X107248278Y-123771829D01*
X107248281Y-123771839D01*
X107323695Y-123953907D01*
X107323702Y-123953920D01*
X107433191Y-124117781D01*
X107433194Y-124117785D01*
X107572545Y-124257136D01*
X107572549Y-124257139D01*
X107736410Y-124366628D01*
X107736423Y-124366635D01*
X107841653Y-124410222D01*
X107918496Y-124442051D01*
X107918500Y-124442051D01*
X107918501Y-124442052D01*
X108111787Y-124480500D01*
X108111790Y-124480500D01*
X108308874Y-124480500D01*
X108438913Y-124454632D01*
X108502166Y-124442051D01*
X108684245Y-124366632D01*
X108848113Y-124257139D01*
X108987470Y-124117782D01*
X109096963Y-123953914D01*
X109172382Y-123771835D01*
X109210831Y-123578541D01*
X109210831Y-123381459D01*
X109210831Y-123381456D01*
X109172383Y-123188170D01*
X109172382Y-123188169D01*
X109172382Y-123188165D01*
X109105978Y-123027850D01*
X109096966Y-123006092D01*
X109096959Y-123006079D01*
X108987470Y-122842218D01*
X108987467Y-122842214D01*
X108848116Y-122702863D01*
X108848112Y-122702860D01*
X108684251Y-122593371D01*
X108684238Y-122593364D01*
X108502170Y-122517950D01*
X108502160Y-122517947D01*
X108308874Y-122479500D01*
X108308872Y-122479500D01*
X108111790Y-122479500D01*
X108111788Y-122479500D01*
X107918501Y-122517947D01*
X107918491Y-122517950D01*
X107736423Y-122593364D01*
X107736410Y-122593371D01*
X107572549Y-122702860D01*
X107572545Y-122702863D01*
X107433194Y-122842214D01*
X107433191Y-122842218D01*
X107323702Y-123006079D01*
X107323695Y-123006092D01*
X107248281Y-123188160D01*
X107248278Y-123188170D01*
X107209831Y-123381456D01*
X107209831Y-123381459D01*
X107209831Y-123578541D01*
X107209831Y-123578543D01*
X107209830Y-123578543D01*
X100987960Y-123578543D01*
X101004759Y-121275247D01*
X110049831Y-121275247D01*
X110049831Y-122914752D01*
X110061462Y-122973229D01*
X110061463Y-122973230D01*
X110105778Y-123039552D01*
X110172100Y-123083867D01*
X110172101Y-123083868D01*
X110230578Y-123095499D01*
X110230581Y-123095500D01*
X110230583Y-123095500D01*
X111870081Y-123095500D01*
X111870082Y-123095499D01*
X111884899Y-123092552D01*
X111928560Y-123083868D01*
X111928560Y-123083867D01*
X111928562Y-123083867D01*
X111994883Y-123039552D01*
X112039198Y-122973231D01*
X112039198Y-122973229D01*
X112039199Y-122973229D01*
X112050830Y-122914752D01*
X112050831Y-122914750D01*
X112050831Y-121586379D01*
X130362000Y-121586379D01*
X130362000Y-121773620D01*
X130398525Y-121957243D01*
X130398527Y-121957251D01*
X130470176Y-122130228D01*
X130470181Y-122130237D01*
X130574197Y-122285907D01*
X130574200Y-122285911D01*
X130706588Y-122418299D01*
X130706592Y-122418302D01*
X130862262Y-122522318D01*
X130862268Y-122522321D01*
X130862269Y-122522322D01*
X131035249Y-122593973D01*
X131218879Y-122630499D01*
X131218883Y-122630500D01*
X131218884Y-122630500D01*
X131406117Y-122630500D01*
X131406118Y-122630499D01*
X131589751Y-122593973D01*
X131762731Y-122522322D01*
X131918408Y-122418302D01*
X132034185Y-122302525D01*
X152983870Y-122302525D01*
X152983870Y-122447475D01*
X153003926Y-122522323D01*
X153021387Y-122587488D01*
X153093858Y-122713011D01*
X153093860Y-122713013D01*
X153093861Y-122713015D01*
X153196355Y-122815509D01*
X153196356Y-122815510D01*
X153196358Y-122815511D01*
X153321881Y-122887982D01*
X153321882Y-122887982D01*
X153321885Y-122887984D01*
X153461895Y-122925500D01*
X153461898Y-122925500D01*
X153606842Y-122925500D01*
X153606845Y-122925500D01*
X153746855Y-122887984D01*
X153872385Y-122815509D01*
X153974879Y-122713015D01*
X153974879Y-122713014D01*
X153976075Y-122711819D01*
X154003002Y-122697115D01*
X154028821Y-122680523D01*
X154035021Y-122679631D01*
X154037398Y-122678334D01*
X154063756Y-122675500D01*
X154204984Y-122675500D01*
X154272023Y-122695185D01*
X154292665Y-122711819D01*
X154293861Y-122713015D01*
X154396355Y-122815509D01*
X154396356Y-122815510D01*
X154396358Y-122815511D01*
X154521881Y-122887982D01*
X154521882Y-122887982D01*
X154521885Y-122887984D01*
X154661895Y-122925500D01*
X154661898Y-122925500D01*
X154806842Y-122925500D01*
X154806845Y-122925500D01*
X154946855Y-122887984D01*
X155072385Y-122815509D01*
X155174879Y-122713015D01*
X155247354Y-122587485D01*
X155284870Y-122447475D01*
X155284870Y-122302525D01*
X155247354Y-122162515D01*
X155228718Y-122130237D01*
X155174881Y-122036988D01*
X155174876Y-122036982D01*
X155072387Y-121934493D01*
X155072381Y-121934488D01*
X154946858Y-121862017D01*
X154946859Y-121862017D01*
X154935376Y-121858940D01*
X154806845Y-121824500D01*
X154661895Y-121824500D01*
X154533363Y-121858940D01*
X154521881Y-121862017D01*
X154396358Y-121934488D01*
X154396352Y-121934493D01*
X154292665Y-122038181D01*
X154265737Y-122052884D01*
X154239919Y-122069477D01*
X154233718Y-122070368D01*
X154231342Y-122071666D01*
X154204984Y-122074500D01*
X154063756Y-122074500D01*
X153996717Y-122054815D01*
X153976075Y-122038181D01*
X153872387Y-121934493D01*
X153872381Y-121934488D01*
X153746858Y-121862017D01*
X153746859Y-121862017D01*
X153735376Y-121858940D01*
X153606845Y-121824500D01*
X153461895Y-121824500D01*
X153333363Y-121858940D01*
X153321881Y-121862017D01*
X153196358Y-121934488D01*
X153196352Y-121934493D01*
X153093863Y-122036982D01*
X153093858Y-122036988D01*
X153021387Y-122162511D01*
X153021386Y-122162515D01*
X152983870Y-122302525D01*
X132034185Y-122302525D01*
X132050802Y-122285908D01*
X132154822Y-122130231D01*
X132226473Y-121957251D01*
X132263000Y-121773616D01*
X132263000Y-121586384D01*
X132226473Y-121402749D01*
X132154822Y-121229769D01*
X132154821Y-121229768D01*
X132154818Y-121229762D01*
X132050802Y-121074092D01*
X132050799Y-121074088D01*
X131918411Y-120941700D01*
X131918407Y-120941697D01*
X131762737Y-120837681D01*
X131762728Y-120837676D01*
X131589751Y-120766027D01*
X131589743Y-120766025D01*
X131406120Y-120729500D01*
X131406116Y-120729500D01*
X131218884Y-120729500D01*
X131218879Y-120729500D01*
X131035256Y-120766025D01*
X131035248Y-120766027D01*
X130862271Y-120837676D01*
X130862262Y-120837681D01*
X130706592Y-120941697D01*
X130706588Y-120941700D01*
X130574200Y-121074088D01*
X130574197Y-121074092D01*
X130470181Y-121229762D01*
X130470176Y-121229771D01*
X130398527Y-121402748D01*
X130398525Y-121402756D01*
X130362000Y-121586379D01*
X112050831Y-121586379D01*
X112050831Y-121275249D01*
X112050830Y-121275247D01*
X112039199Y-121216770D01*
X112039198Y-121216769D01*
X111994883Y-121150447D01*
X111928561Y-121106132D01*
X111928560Y-121106131D01*
X111870083Y-121094500D01*
X111870079Y-121094500D01*
X110230583Y-121094500D01*
X110230578Y-121094500D01*
X110172101Y-121106131D01*
X110172100Y-121106132D01*
X110105778Y-121150447D01*
X110061463Y-121216769D01*
X110061462Y-121216770D01*
X110049831Y-121275247D01*
X101004759Y-121275247D01*
X101038081Y-116706379D01*
X130362000Y-116706379D01*
X130362000Y-116893620D01*
X130398525Y-117077243D01*
X130398527Y-117077251D01*
X130470176Y-117250228D01*
X130470181Y-117250237D01*
X130574197Y-117405907D01*
X130574200Y-117405911D01*
X130706588Y-117538299D01*
X130706592Y-117538302D01*
X130862262Y-117642318D01*
X130862268Y-117642321D01*
X130862269Y-117642322D01*
X131035249Y-117713973D01*
X131218879Y-117750499D01*
X131218883Y-117750500D01*
X131218884Y-117750500D01*
X131406117Y-117750500D01*
X131406118Y-117750499D01*
X131589751Y-117713973D01*
X131762731Y-117642322D01*
X131918408Y-117538302D01*
X132050802Y-117405908D01*
X132154822Y-117250231D01*
X132226473Y-117077251D01*
X132263000Y-116893616D01*
X132263000Y-116706384D01*
X132226473Y-116522749D01*
X132154822Y-116349769D01*
X132154821Y-116349768D01*
X132154818Y-116349762D01*
X132050802Y-116194092D01*
X132050799Y-116194088D01*
X131918411Y-116061700D01*
X131918407Y-116061697D01*
X131762737Y-115957681D01*
X131762728Y-115957676D01*
X131589751Y-115886027D01*
X131589743Y-115886025D01*
X131406120Y-115849500D01*
X131406116Y-115849500D01*
X131218884Y-115849500D01*
X131218879Y-115849500D01*
X131035256Y-115886025D01*
X131035248Y-115886027D01*
X130862271Y-115957676D01*
X130862262Y-115957681D01*
X130706592Y-116061697D01*
X130706588Y-116061700D01*
X130574200Y-116194088D01*
X130574197Y-116194092D01*
X130470181Y-116349762D01*
X130470176Y-116349771D01*
X130398527Y-116522748D01*
X130398525Y-116522756D01*
X130362000Y-116706379D01*
X101038081Y-116706379D01*
X101127635Y-104427525D01*
X160699500Y-104427525D01*
X160699500Y-104572475D01*
X160731128Y-104690511D01*
X160737017Y-104712488D01*
X160809488Y-104838011D01*
X160809490Y-104838013D01*
X160809491Y-104838015D01*
X160911985Y-104940509D01*
X160911986Y-104940510D01*
X160911988Y-104940511D01*
X161037511Y-105012982D01*
X161037512Y-105012982D01*
X161037515Y-105012984D01*
X161177525Y-105050500D01*
X161177528Y-105050500D01*
X161322472Y-105050500D01*
X161322475Y-105050500D01*
X161462485Y-105012984D01*
X161588015Y-104940509D01*
X161690509Y-104838015D01*
X161762984Y-104712485D01*
X161781762Y-104642403D01*
X161818126Y-104582746D01*
X161880973Y-104552217D01*
X161901536Y-104550500D01*
X164720614Y-104550500D01*
X164787653Y-104570185D01*
X164808295Y-104586819D01*
X164809491Y-104588015D01*
X164911985Y-104690509D01*
X164911986Y-104690510D01*
X164911988Y-104690511D01*
X165037511Y-104762982D01*
X165037512Y-104762982D01*
X165037515Y-104762984D01*
X165177525Y-104800500D01*
X165177528Y-104800500D01*
X165322472Y-104800500D01*
X165322475Y-104800500D01*
X165462485Y-104762984D01*
X165588015Y-104690509D01*
X165690509Y-104588015D01*
X165762984Y-104462485D01*
X165800500Y-104322475D01*
X165800500Y-104177525D01*
X165762984Y-104037515D01*
X165733828Y-103987016D01*
X165690511Y-103911988D01*
X165690506Y-103911982D01*
X165588017Y-103809493D01*
X165588011Y-103809488D01*
X165462488Y-103737017D01*
X165462489Y-103737017D01*
X165451006Y-103733940D01*
X165322475Y-103699500D01*
X165177525Y-103699500D01*
X165048993Y-103733940D01*
X165037511Y-103737017D01*
X164911988Y-103809488D01*
X164911982Y-103809493D01*
X164808295Y-103913181D01*
X164746972Y-103946666D01*
X164720614Y-103949500D01*
X161460438Y-103949500D01*
X161423545Y-103959384D01*
X161359364Y-103959384D01*
X161322476Y-103949500D01*
X161322475Y-103949500D01*
X161177525Y-103949500D01*
X161048993Y-103983940D01*
X161037511Y-103987017D01*
X160911988Y-104059488D01*
X160911982Y-104059493D01*
X160809493Y-104161982D01*
X160809488Y-104161988D01*
X160737017Y-104287511D01*
X160737016Y-104287515D01*
X160699500Y-104427525D01*
X101127635Y-104427525D01*
X101160616Y-99905513D01*
X140799500Y-99905513D01*
X140799500Y-100094486D01*
X140829059Y-100281118D01*
X140887454Y-100460836D01*
X140949363Y-100582338D01*
X140973240Y-100629199D01*
X141084310Y-100782073D01*
X141217927Y-100915690D01*
X141370801Y-101026760D01*
X141421254Y-101052467D01*
X141539163Y-101112545D01*
X141539165Y-101112545D01*
X141539168Y-101112547D01*
X141635497Y-101143846D01*
X141718881Y-101170940D01*
X141905514Y-101200500D01*
X141905519Y-101200500D01*
X142094486Y-101200500D01*
X142281118Y-101170940D01*
X142308758Y-101161959D01*
X142460832Y-101112547D01*
X142629199Y-101026760D01*
X142782073Y-100915690D01*
X142915690Y-100782073D01*
X143026760Y-100629199D01*
X143112547Y-100460832D01*
X143170940Y-100281118D01*
X143171857Y-100275330D01*
X143200500Y-100094486D01*
X143200500Y-99905513D01*
X147299500Y-99905513D01*
X147299500Y-100094486D01*
X147329059Y-100281118D01*
X147387454Y-100460836D01*
X147449363Y-100582338D01*
X147473240Y-100629199D01*
X147584310Y-100782073D01*
X147717927Y-100915690D01*
X147870801Y-101026760D01*
X147921254Y-101052467D01*
X148039163Y-101112545D01*
X148039165Y-101112545D01*
X148039168Y-101112547D01*
X148135497Y-101143846D01*
X148218881Y-101170940D01*
X148405514Y-101200500D01*
X148405519Y-101200500D01*
X148594486Y-101200500D01*
X148781118Y-101170940D01*
X148808758Y-101161959D01*
X148960832Y-101112547D01*
X149129199Y-101026760D01*
X149282073Y-100915690D01*
X149415690Y-100782073D01*
X149526760Y-100629199D01*
X149612547Y-100460832D01*
X149670940Y-100281118D01*
X149671857Y-100275330D01*
X149688237Y-100171910D01*
X156510000Y-100171910D01*
X156510000Y-100378751D01*
X156550348Y-100581597D01*
X156550350Y-100581605D01*
X156629500Y-100772690D01*
X156703862Y-100883980D01*
X157103388Y-100484454D01*
X157159901Y-100582338D01*
X157252993Y-100675430D01*
X157350875Y-100731942D01*
X156951349Y-101131468D01*
X157062640Y-101205830D01*
X157253725Y-101284980D01*
X157253733Y-101284982D01*
X157456579Y-101325330D01*
X157456583Y-101325331D01*
X157663417Y-101325331D01*
X157663420Y-101325330D01*
X157866266Y-101284982D01*
X157866274Y-101284980D01*
X158057359Y-101205830D01*
X158168649Y-101131468D01*
X157769124Y-100731942D01*
X157867007Y-100675430D01*
X157960099Y-100582338D01*
X158016611Y-100484454D01*
X158416137Y-100883980D01*
X158490499Y-100772690D01*
X158569649Y-100581605D01*
X158569651Y-100581597D01*
X158609999Y-100378751D01*
X158610000Y-100378748D01*
X158610000Y-100373874D01*
X159329499Y-100373874D01*
X159367947Y-100567160D01*
X159367950Y-100567170D01*
X159443364Y-100749238D01*
X159443371Y-100749251D01*
X159552860Y-100913112D01*
X159552863Y-100913116D01*
X159692214Y-101052467D01*
X159692218Y-101052470D01*
X159856079Y-101161959D01*
X159856092Y-101161966D01*
X159949123Y-101200500D01*
X160038165Y-101237382D01*
X160038169Y-101237382D01*
X160038170Y-101237383D01*
X160231456Y-101275831D01*
X160231459Y-101275831D01*
X160428543Y-101275831D01*
X160558582Y-101249963D01*
X160621835Y-101237382D01*
X160762655Y-101179052D01*
X160803907Y-101161966D01*
X160803907Y-101161965D01*
X160803914Y-101161963D01*
X160967782Y-101052470D01*
X161107139Y-100913113D01*
X161216632Y-100749245D01*
X161292051Y-100567166D01*
X161313202Y-100460836D01*
X161330500Y-100373874D01*
X162099499Y-100373874D01*
X162137947Y-100567160D01*
X162137950Y-100567170D01*
X162213364Y-100749238D01*
X162213371Y-100749251D01*
X162322860Y-100913112D01*
X162322863Y-100913116D01*
X162462214Y-101052467D01*
X162462218Y-101052470D01*
X162626079Y-101161959D01*
X162626092Y-101161966D01*
X162719123Y-101200500D01*
X162808165Y-101237382D01*
X162808169Y-101237382D01*
X162808170Y-101237383D01*
X163001456Y-101275831D01*
X163001459Y-101275831D01*
X163198543Y-101275831D01*
X163328582Y-101249963D01*
X163391835Y-101237382D01*
X163532655Y-101179052D01*
X163573907Y-101161966D01*
X163573907Y-101161965D01*
X163573914Y-101161963D01*
X163737782Y-101052470D01*
X163877139Y-100913113D01*
X163986632Y-100749245D01*
X164062051Y-100567166D01*
X164083202Y-100460836D01*
X164100500Y-100373874D01*
X164869499Y-100373874D01*
X164907947Y-100567160D01*
X164907950Y-100567170D01*
X164983364Y-100749238D01*
X164983371Y-100749251D01*
X165092860Y-100913112D01*
X165092863Y-100913116D01*
X165232214Y-101052467D01*
X165232218Y-101052470D01*
X165396079Y-101161959D01*
X165396092Y-101161966D01*
X165489123Y-101200500D01*
X165578165Y-101237382D01*
X165578169Y-101237382D01*
X165578170Y-101237383D01*
X165771456Y-101275831D01*
X165771459Y-101275831D01*
X165968543Y-101275831D01*
X166098582Y-101249963D01*
X166161835Y-101237382D01*
X166302655Y-101179052D01*
X166343907Y-101161966D01*
X166343907Y-101161965D01*
X166343914Y-101161963D01*
X166507782Y-101052470D01*
X166647139Y-100913113D01*
X166756632Y-100749245D01*
X166832051Y-100567166D01*
X166853202Y-100460836D01*
X166870500Y-100373874D01*
X166870500Y-100176787D01*
X166832052Y-99983501D01*
X166832051Y-99983500D01*
X166832051Y-99983496D01*
X166787207Y-99875232D01*
X166756635Y-99801423D01*
X166756628Y-99801410D01*
X166647139Y-99637549D01*
X166647136Y-99637545D01*
X166507785Y-99498194D01*
X166507781Y-99498191D01*
X166444006Y-99455578D01*
X167639500Y-99455578D01*
X167639500Y-101095083D01*
X167651131Y-101153560D01*
X167651132Y-101153561D01*
X167695447Y-101219883D01*
X167761769Y-101264198D01*
X167761770Y-101264199D01*
X167820247Y-101275830D01*
X167820250Y-101275831D01*
X167820252Y-101275831D01*
X169459750Y-101275831D01*
X169459751Y-101275830D01*
X169474568Y-101272883D01*
X169518229Y-101264199D01*
X169518229Y-101264198D01*
X169518231Y-101264198D01*
X169584552Y-101219883D01*
X169628867Y-101153562D01*
X169628867Y-101153560D01*
X169628868Y-101153560D01*
X169640499Y-101095083D01*
X169640500Y-101095081D01*
X169640500Y-99455580D01*
X169640499Y-99455578D01*
X169628868Y-99397101D01*
X169628867Y-99397100D01*
X169584552Y-99330778D01*
X169518230Y-99286463D01*
X169518229Y-99286462D01*
X169459752Y-99274831D01*
X169459748Y-99274831D01*
X167820252Y-99274831D01*
X167820247Y-99274831D01*
X167761770Y-99286462D01*
X167761769Y-99286463D01*
X167695447Y-99330778D01*
X167651132Y-99397100D01*
X167651131Y-99397101D01*
X167639500Y-99455578D01*
X166444006Y-99455578D01*
X166343920Y-99388702D01*
X166343907Y-99388695D01*
X166161839Y-99313281D01*
X166161829Y-99313278D01*
X165968543Y-99274831D01*
X165968541Y-99274831D01*
X165771459Y-99274831D01*
X165771457Y-99274831D01*
X165578170Y-99313278D01*
X165578160Y-99313281D01*
X165396092Y-99388695D01*
X165396079Y-99388702D01*
X165232218Y-99498191D01*
X165232214Y-99498194D01*
X165092863Y-99637545D01*
X165092860Y-99637549D01*
X164983371Y-99801410D01*
X164983364Y-99801423D01*
X164907950Y-99983491D01*
X164907947Y-99983501D01*
X164869500Y-100176787D01*
X164869500Y-100176790D01*
X164869500Y-100373872D01*
X164869500Y-100373874D01*
X164869499Y-100373874D01*
X164100500Y-100373874D01*
X164100500Y-100176787D01*
X164062052Y-99983501D01*
X164062051Y-99983500D01*
X164062051Y-99983496D01*
X164017207Y-99875232D01*
X163986635Y-99801423D01*
X163986628Y-99801410D01*
X163877139Y-99637549D01*
X163877136Y-99637545D01*
X163737785Y-99498194D01*
X163737781Y-99498191D01*
X163573920Y-99388702D01*
X163573907Y-99388695D01*
X163391839Y-99313281D01*
X163391829Y-99313278D01*
X163198543Y-99274831D01*
X163198541Y-99274831D01*
X163001459Y-99274831D01*
X163001457Y-99274831D01*
X162808170Y-99313278D01*
X162808160Y-99313281D01*
X162626092Y-99388695D01*
X162626079Y-99388702D01*
X162462218Y-99498191D01*
X162462214Y-99498194D01*
X162322863Y-99637545D01*
X162322860Y-99637549D01*
X162213371Y-99801410D01*
X162213364Y-99801423D01*
X162137950Y-99983491D01*
X162137947Y-99983501D01*
X162099500Y-100176787D01*
X162099500Y-100176790D01*
X162099500Y-100373872D01*
X162099500Y-100373874D01*
X162099499Y-100373874D01*
X161330500Y-100373874D01*
X161330500Y-100176787D01*
X161292052Y-99983501D01*
X161292051Y-99983500D01*
X161292051Y-99983496D01*
X161247207Y-99875232D01*
X161216635Y-99801423D01*
X161216628Y-99801410D01*
X161107139Y-99637549D01*
X161107136Y-99637545D01*
X160967785Y-99498194D01*
X160967781Y-99498191D01*
X160803920Y-99388702D01*
X160803907Y-99388695D01*
X160621839Y-99313281D01*
X160621829Y-99313278D01*
X160428543Y-99274831D01*
X160428541Y-99274831D01*
X160231459Y-99274831D01*
X160231457Y-99274831D01*
X160038170Y-99313278D01*
X160038160Y-99313281D01*
X159856092Y-99388695D01*
X159856079Y-99388702D01*
X159692218Y-99498191D01*
X159692214Y-99498194D01*
X159552863Y-99637545D01*
X159552860Y-99637549D01*
X159443371Y-99801410D01*
X159443364Y-99801423D01*
X159367950Y-99983491D01*
X159367947Y-99983501D01*
X159329500Y-100176787D01*
X159329500Y-100176790D01*
X159329500Y-100373872D01*
X159329500Y-100373874D01*
X159329499Y-100373874D01*
X158610000Y-100373874D01*
X158610000Y-100171914D01*
X158609999Y-100171910D01*
X158569651Y-99969064D01*
X158569649Y-99969056D01*
X158490499Y-99777971D01*
X158416137Y-99666680D01*
X158016611Y-100066206D01*
X157960099Y-99968324D01*
X157867007Y-99875232D01*
X157769124Y-99818719D01*
X158168649Y-99419193D01*
X158168649Y-99419192D01*
X158057359Y-99344831D01*
X157866274Y-99265681D01*
X157866266Y-99265679D01*
X157663420Y-99225331D01*
X157456579Y-99225331D01*
X157253733Y-99265679D01*
X157253725Y-99265681D01*
X157062641Y-99344831D01*
X157062631Y-99344836D01*
X156951350Y-99419192D01*
X156951350Y-99419193D01*
X157350876Y-99818719D01*
X157252993Y-99875232D01*
X157159901Y-99968324D01*
X157103388Y-100066207D01*
X156703862Y-99666681D01*
X156703861Y-99666681D01*
X156629505Y-99777962D01*
X156629500Y-99777972D01*
X156550350Y-99969056D01*
X156550348Y-99969064D01*
X156510000Y-100171910D01*
X149688237Y-100171910D01*
X149692274Y-100146425D01*
X149692274Y-100146424D01*
X149700500Y-100094487D01*
X149700500Y-99905513D01*
X149670940Y-99718881D01*
X149644512Y-99637545D01*
X149612547Y-99539168D01*
X149612544Y-99539164D01*
X149612544Y-99539161D01*
X149603647Y-99521700D01*
X149603646Y-99521699D01*
X149526759Y-99370800D01*
X149507895Y-99344836D01*
X149415690Y-99217927D01*
X149282073Y-99084310D01*
X149129199Y-98973240D01*
X148960836Y-98887454D01*
X148781118Y-98829059D01*
X148594486Y-98799500D01*
X148594481Y-98799500D01*
X148405519Y-98799500D01*
X148405514Y-98799500D01*
X148218881Y-98829059D01*
X148039163Y-98887454D01*
X147870800Y-98973240D01*
X147783579Y-99036610D01*
X147717927Y-99084310D01*
X147717925Y-99084312D01*
X147717924Y-99084312D01*
X147584312Y-99217924D01*
X147584312Y-99217925D01*
X147584310Y-99217927D01*
X147578931Y-99225331D01*
X147473240Y-99370800D01*
X147387454Y-99539163D01*
X147329059Y-99718881D01*
X147299500Y-99905513D01*
X143200500Y-99905513D01*
X143170940Y-99718881D01*
X143112545Y-99539163D01*
X143026759Y-99370800D01*
X143007895Y-99344836D01*
X142915690Y-99217927D01*
X142782073Y-99084310D01*
X142629199Y-98973240D01*
X142460836Y-98887454D01*
X142281118Y-98829059D01*
X142094486Y-98799500D01*
X142094481Y-98799500D01*
X141905519Y-98799500D01*
X141905514Y-98799500D01*
X141718881Y-98829059D01*
X141539163Y-98887454D01*
X141370800Y-98973240D01*
X141283579Y-99036610D01*
X141217927Y-99084310D01*
X141217925Y-99084312D01*
X141217924Y-99084312D01*
X141084312Y-99217924D01*
X141084312Y-99217925D01*
X141084310Y-99217927D01*
X141078931Y-99225331D01*
X140973240Y-99370800D01*
X140887454Y-99539163D01*
X140829059Y-99718881D01*
X140799500Y-99905513D01*
X101160616Y-99905513D01*
X101177913Y-97533874D01*
X157944499Y-97533874D01*
X157982947Y-97727160D01*
X157982950Y-97727170D01*
X158058364Y-97909238D01*
X158058371Y-97909251D01*
X158167860Y-98073112D01*
X158167863Y-98073116D01*
X158307214Y-98212467D01*
X158307218Y-98212470D01*
X158471079Y-98321959D01*
X158471092Y-98321966D01*
X158653160Y-98397380D01*
X158653165Y-98397382D01*
X158653169Y-98397382D01*
X158653170Y-98397383D01*
X158846456Y-98435831D01*
X158846459Y-98435831D01*
X159043543Y-98435831D01*
X159173582Y-98409963D01*
X159236835Y-98397382D01*
X159418914Y-98321963D01*
X159582782Y-98212470D01*
X159722139Y-98073113D01*
X159831632Y-97909245D01*
X159907051Y-97727166D01*
X159945500Y-97533874D01*
X160714499Y-97533874D01*
X160752947Y-97727160D01*
X160752950Y-97727170D01*
X160828364Y-97909238D01*
X160828371Y-97909251D01*
X160937860Y-98073112D01*
X160937863Y-98073116D01*
X161077214Y-98212467D01*
X161077218Y-98212470D01*
X161241079Y-98321959D01*
X161241092Y-98321966D01*
X161423160Y-98397380D01*
X161423165Y-98397382D01*
X161423169Y-98397382D01*
X161423170Y-98397383D01*
X161616456Y-98435831D01*
X161616459Y-98435831D01*
X161813543Y-98435831D01*
X161943582Y-98409963D01*
X162006835Y-98397382D01*
X162188914Y-98321963D01*
X162352782Y-98212470D01*
X162492139Y-98073113D01*
X162601632Y-97909245D01*
X162677051Y-97727166D01*
X162715500Y-97533874D01*
X163484499Y-97533874D01*
X163522947Y-97727160D01*
X163522950Y-97727170D01*
X163598364Y-97909238D01*
X163598371Y-97909251D01*
X163707860Y-98073112D01*
X163707863Y-98073116D01*
X163847214Y-98212467D01*
X163847218Y-98212470D01*
X164011079Y-98321959D01*
X164011092Y-98321966D01*
X164193160Y-98397380D01*
X164193165Y-98397382D01*
X164193169Y-98397382D01*
X164193170Y-98397383D01*
X164386456Y-98435831D01*
X164386459Y-98435831D01*
X164583543Y-98435831D01*
X164713582Y-98409963D01*
X164776835Y-98397382D01*
X164958914Y-98321963D01*
X165122782Y-98212470D01*
X165262139Y-98073113D01*
X165371632Y-97909245D01*
X165447051Y-97727166D01*
X165485500Y-97533874D01*
X166254499Y-97533874D01*
X166292947Y-97727160D01*
X166292950Y-97727170D01*
X166368364Y-97909238D01*
X166368371Y-97909251D01*
X166477860Y-98073112D01*
X166477863Y-98073116D01*
X166617214Y-98212467D01*
X166617218Y-98212470D01*
X166781079Y-98321959D01*
X166781092Y-98321966D01*
X166963160Y-98397380D01*
X166963165Y-98397382D01*
X166963169Y-98397382D01*
X166963170Y-98397383D01*
X167156456Y-98435831D01*
X167156459Y-98435831D01*
X167353543Y-98435831D01*
X167483582Y-98409963D01*
X167546835Y-98397382D01*
X167728914Y-98321963D01*
X167892782Y-98212470D01*
X168032139Y-98073113D01*
X168141632Y-97909245D01*
X168217051Y-97727166D01*
X168255500Y-97533872D01*
X168255500Y-97336790D01*
X168255500Y-97336787D01*
X168217052Y-97143501D01*
X168217051Y-97143500D01*
X168217051Y-97143496D01*
X168217049Y-97143491D01*
X168141635Y-96961423D01*
X168141628Y-96961410D01*
X168032139Y-96797549D01*
X168032136Y-96797545D01*
X167892785Y-96658194D01*
X167892781Y-96658191D01*
X167728920Y-96548702D01*
X167728907Y-96548695D01*
X167546839Y-96473281D01*
X167546829Y-96473278D01*
X167353543Y-96434831D01*
X167353541Y-96434831D01*
X167156459Y-96434831D01*
X167156457Y-96434831D01*
X166963170Y-96473278D01*
X166963160Y-96473281D01*
X166781092Y-96548695D01*
X166781079Y-96548702D01*
X166617218Y-96658191D01*
X166617214Y-96658194D01*
X166477863Y-96797545D01*
X166477860Y-96797549D01*
X166368371Y-96961410D01*
X166368364Y-96961423D01*
X166292950Y-97143491D01*
X166292947Y-97143501D01*
X166254500Y-97336787D01*
X166254500Y-97336790D01*
X166254500Y-97533872D01*
X166254500Y-97533874D01*
X166254499Y-97533874D01*
X165485500Y-97533874D01*
X165485500Y-97533872D01*
X165485500Y-97336790D01*
X165485500Y-97336787D01*
X165447052Y-97143501D01*
X165447051Y-97143500D01*
X165447051Y-97143496D01*
X165447049Y-97143491D01*
X165371635Y-96961423D01*
X165371628Y-96961410D01*
X165262139Y-96797549D01*
X165262136Y-96797545D01*
X165122785Y-96658194D01*
X165122781Y-96658191D01*
X164958920Y-96548702D01*
X164958907Y-96548695D01*
X164776839Y-96473281D01*
X164776829Y-96473278D01*
X164583543Y-96434831D01*
X164583541Y-96434831D01*
X164386459Y-96434831D01*
X164386457Y-96434831D01*
X164193170Y-96473278D01*
X164193160Y-96473281D01*
X164011092Y-96548695D01*
X164011079Y-96548702D01*
X163847218Y-96658191D01*
X163847214Y-96658194D01*
X163707863Y-96797545D01*
X163707860Y-96797549D01*
X163598371Y-96961410D01*
X163598364Y-96961423D01*
X163522950Y-97143491D01*
X163522947Y-97143501D01*
X163484500Y-97336787D01*
X163484500Y-97336790D01*
X163484500Y-97533872D01*
X163484500Y-97533874D01*
X163484499Y-97533874D01*
X162715500Y-97533874D01*
X162715500Y-97533872D01*
X162715500Y-97336790D01*
X162715500Y-97336787D01*
X162677052Y-97143501D01*
X162677051Y-97143500D01*
X162677051Y-97143496D01*
X162677049Y-97143491D01*
X162601635Y-96961423D01*
X162601628Y-96961410D01*
X162492139Y-96797549D01*
X162492136Y-96797545D01*
X162352785Y-96658194D01*
X162352781Y-96658191D01*
X162188920Y-96548702D01*
X162188907Y-96548695D01*
X162006839Y-96473281D01*
X162006829Y-96473278D01*
X161813543Y-96434831D01*
X161813541Y-96434831D01*
X161616459Y-96434831D01*
X161616457Y-96434831D01*
X161423170Y-96473278D01*
X161423160Y-96473281D01*
X161241092Y-96548695D01*
X161241079Y-96548702D01*
X161077218Y-96658191D01*
X161077214Y-96658194D01*
X160937863Y-96797545D01*
X160937860Y-96797549D01*
X160828371Y-96961410D01*
X160828364Y-96961423D01*
X160752950Y-97143491D01*
X160752947Y-97143501D01*
X160714500Y-97336787D01*
X160714500Y-97336790D01*
X160714500Y-97533872D01*
X160714500Y-97533874D01*
X160714499Y-97533874D01*
X159945500Y-97533874D01*
X159945500Y-97533872D01*
X159945500Y-97336790D01*
X159945500Y-97336787D01*
X159907052Y-97143501D01*
X159907051Y-97143500D01*
X159907051Y-97143496D01*
X159907049Y-97143491D01*
X159831635Y-96961423D01*
X159831628Y-96961410D01*
X159722139Y-96797549D01*
X159722136Y-96797545D01*
X159582785Y-96658194D01*
X159582781Y-96658191D01*
X159418920Y-96548702D01*
X159418907Y-96548695D01*
X159236839Y-96473281D01*
X159236829Y-96473278D01*
X159043543Y-96434831D01*
X159043541Y-96434831D01*
X158846459Y-96434831D01*
X158846457Y-96434831D01*
X158653170Y-96473278D01*
X158653160Y-96473281D01*
X158471092Y-96548695D01*
X158471079Y-96548702D01*
X158307218Y-96658191D01*
X158307214Y-96658194D01*
X158167863Y-96797545D01*
X158167860Y-96797549D01*
X158058371Y-96961410D01*
X158058364Y-96961423D01*
X157982950Y-97143491D01*
X157982947Y-97143501D01*
X157944500Y-97336787D01*
X157944500Y-97336790D01*
X157944500Y-97533872D01*
X157944500Y-97533874D01*
X157944499Y-97533874D01*
X101177913Y-97533874D01*
X101193464Y-95401617D01*
X140750000Y-95401617D01*
X140750000Y-95598382D01*
X140780778Y-95792705D01*
X140841581Y-95979835D01*
X140930904Y-96155143D01*
X141000954Y-96251557D01*
X141000954Y-96251558D01*
X141506785Y-95745727D01*
X141559890Y-95837708D01*
X141662292Y-95940110D01*
X141754272Y-95993213D01*
X141248440Y-96499044D01*
X141344856Y-96569095D01*
X141520164Y-96658418D01*
X141707294Y-96719221D01*
X141901618Y-96750000D01*
X142098382Y-96750000D01*
X142292705Y-96719221D01*
X142479835Y-96658418D01*
X142655142Y-96569096D01*
X142751557Y-96499044D01*
X142751558Y-96499044D01*
X142245727Y-95993214D01*
X142337708Y-95940110D01*
X142440110Y-95837708D01*
X142493214Y-95745727D01*
X142999044Y-96251558D01*
X142999044Y-96251557D01*
X143069096Y-96155142D01*
X143158418Y-95979835D01*
X143219221Y-95792705D01*
X143250000Y-95598382D01*
X143250000Y-95401617D01*
X147250000Y-95401617D01*
X147250000Y-95598382D01*
X147280778Y-95792705D01*
X147341581Y-95979835D01*
X147430904Y-96155143D01*
X147500954Y-96251557D01*
X147500954Y-96251558D01*
X148006785Y-95745727D01*
X148059890Y-95837708D01*
X148162292Y-95940110D01*
X148254272Y-95993213D01*
X147748440Y-96499044D01*
X147844856Y-96569095D01*
X148020164Y-96658418D01*
X148207294Y-96719221D01*
X148401618Y-96750000D01*
X148598382Y-96750000D01*
X148792705Y-96719221D01*
X148979835Y-96658418D01*
X149155142Y-96569096D01*
X149251557Y-96499044D01*
X149251558Y-96499044D01*
X148745727Y-95993214D01*
X148837708Y-95940110D01*
X148940110Y-95837708D01*
X148993214Y-95745727D01*
X149499044Y-96251558D01*
X149499044Y-96251557D01*
X149569096Y-96155142D01*
X149658418Y-95979835D01*
X149719221Y-95792705D01*
X149750000Y-95598382D01*
X149750000Y-95401617D01*
X149719221Y-95207294D01*
X149658418Y-95020164D01*
X149569095Y-94844856D01*
X149499044Y-94748441D01*
X149499044Y-94748440D01*
X148993213Y-95254271D01*
X148940110Y-95162292D01*
X148837708Y-95059890D01*
X148745726Y-95006785D01*
X149251558Y-94500954D01*
X149155143Y-94430904D01*
X148979835Y-94341581D01*
X148792705Y-94280778D01*
X148598382Y-94250000D01*
X148401618Y-94250000D01*
X148207294Y-94280778D01*
X148020164Y-94341581D01*
X147844855Y-94430905D01*
X147844846Y-94430911D01*
X147748441Y-94500953D01*
X147748440Y-94500954D01*
X148254272Y-95006785D01*
X148162292Y-95059890D01*
X148059890Y-95162292D01*
X148006785Y-95254272D01*
X147500954Y-94748440D01*
X147500953Y-94748441D01*
X147430911Y-94844846D01*
X147430905Y-94844855D01*
X147341581Y-95020164D01*
X147280778Y-95207294D01*
X147250000Y-95401617D01*
X143250000Y-95401617D01*
X143219221Y-95207294D01*
X143158418Y-95020164D01*
X143069095Y-94844856D01*
X142999044Y-94748441D01*
X142999044Y-94748440D01*
X142493213Y-95254271D01*
X142440110Y-95162292D01*
X142337708Y-95059890D01*
X142245726Y-95006785D01*
X142751558Y-94500954D01*
X142655143Y-94430904D01*
X142479835Y-94341581D01*
X142292705Y-94280778D01*
X142098382Y-94250000D01*
X141901618Y-94250000D01*
X141707294Y-94280778D01*
X141520164Y-94341581D01*
X141344855Y-94430905D01*
X141344846Y-94430911D01*
X141248441Y-94500953D01*
X141248440Y-94500954D01*
X141754272Y-95006785D01*
X141662292Y-95059890D01*
X141559890Y-95162292D01*
X141506785Y-95254272D01*
X141000954Y-94748440D01*
X141000953Y-94748441D01*
X140930911Y-94844846D01*
X140930905Y-94844855D01*
X140841581Y-95020164D01*
X140780778Y-95207294D01*
X140750000Y-95401617D01*
X101193464Y-95401617D01*
X101206434Y-93623297D01*
X101226606Y-93556409D01*
X101279743Y-93511040D01*
X101348972Y-93501601D01*
X101412314Y-93531089D01*
X101437816Y-93562205D01*
X101499751Y-93669479D01*
X101499754Y-93669483D01*
X101499756Y-93669486D01*
X101667370Y-93887926D01*
X101667376Y-93887933D01*
X101862066Y-94082623D01*
X101862072Y-94082628D01*
X102080521Y-94250249D01*
X102233778Y-94338732D01*
X102318971Y-94387919D01*
X102318976Y-94387921D01*
X102318979Y-94387923D01*
X102573368Y-94493295D01*
X102839334Y-94564560D01*
X103112326Y-94600500D01*
X103112333Y-94600500D01*
X103387667Y-94600500D01*
X103387674Y-94600500D01*
X103660666Y-94564560D01*
X103926632Y-94493295D01*
X104077240Y-94430911D01*
X104089647Y-94425771D01*
X104181021Y-94387923D01*
X104419479Y-94250249D01*
X104637928Y-94082628D01*
X104832628Y-93887928D01*
X105000249Y-93669479D01*
X105137923Y-93431021D01*
X105243295Y-93176632D01*
X105314560Y-92910666D01*
X105350500Y-92637674D01*
X105350500Y-92362326D01*
X105314560Y-92089334D01*
X105293927Y-92012332D01*
X173899500Y-92012332D01*
X173899500Y-92287667D01*
X173899501Y-92287684D01*
X173935438Y-92560655D01*
X173935439Y-92560660D01*
X173935440Y-92560666D01*
X173935441Y-92560668D01*
X174006704Y-92826630D01*
X174112075Y-93081017D01*
X174112080Y-93081028D01*
X174167277Y-93176630D01*
X174249751Y-93319479D01*
X174249753Y-93319482D01*
X174249754Y-93319483D01*
X174417370Y-93537926D01*
X174417376Y-93537933D01*
X174612066Y-93732623D01*
X174612072Y-93732628D01*
X174830521Y-93900249D01*
X174983778Y-93988732D01*
X175068971Y-94037919D01*
X175068976Y-94037921D01*
X175068979Y-94037923D01*
X175323368Y-94143295D01*
X175589334Y-94214560D01*
X175862326Y-94250500D01*
X175862333Y-94250500D01*
X176137667Y-94250500D01*
X176137674Y-94250500D01*
X176410666Y-94214560D01*
X176676632Y-94143295D01*
X176931021Y-94037923D01*
X177169479Y-93900249D01*
X177387928Y-93732628D01*
X177582628Y-93537928D01*
X177750249Y-93319479D01*
X177887923Y-93081021D01*
X177993295Y-92826632D01*
X178064560Y-92560666D01*
X178100500Y-92287674D01*
X178100500Y-92012326D01*
X178064560Y-91739334D01*
X177993295Y-91473368D01*
X177887923Y-91218979D01*
X177887921Y-91218976D01*
X177887919Y-91218971D01*
X177826200Y-91112072D01*
X177750249Y-90980521D01*
X177677026Y-90885095D01*
X177582629Y-90762073D01*
X177582623Y-90762066D01*
X177387933Y-90567376D01*
X177387926Y-90567370D01*
X177169483Y-90399754D01*
X177169482Y-90399753D01*
X177169479Y-90399751D01*
X177074407Y-90344861D01*
X176931028Y-90262080D01*
X176931017Y-90262075D01*
X176676630Y-90156704D01*
X176496854Y-90108534D01*
X176410666Y-90085440D01*
X176410660Y-90085439D01*
X176410655Y-90085438D01*
X176137684Y-90049501D01*
X176137679Y-90049500D01*
X176137674Y-90049500D01*
X175862326Y-90049500D01*
X175862320Y-90049500D01*
X175862315Y-90049501D01*
X175589344Y-90085438D01*
X175589337Y-90085439D01*
X175589334Y-90085440D01*
X175533125Y-90100500D01*
X175323369Y-90156704D01*
X175068982Y-90262075D01*
X175068971Y-90262080D01*
X174867289Y-90378523D01*
X174839620Y-90394498D01*
X174830516Y-90399754D01*
X174612073Y-90567370D01*
X174612066Y-90567376D01*
X174417376Y-90762066D01*
X174417370Y-90762073D01*
X174249754Y-90980516D01*
X174112080Y-91218971D01*
X174112075Y-91218982D01*
X174006704Y-91473369D01*
X173935441Y-91739331D01*
X173935438Y-91739344D01*
X173899501Y-92012315D01*
X173899500Y-92012332D01*
X105293927Y-92012332D01*
X105243295Y-91823368D01*
X105137923Y-91568979D01*
X105137921Y-91568976D01*
X105137919Y-91568971D01*
X105074396Y-91458947D01*
X105000249Y-91330521D01*
X104832628Y-91112072D01*
X104832623Y-91112066D01*
X104637933Y-90917376D01*
X104637926Y-90917370D01*
X104516139Y-90823920D01*
X137869499Y-90823920D01*
X137898340Y-90968907D01*
X137898343Y-90968917D01*
X137954912Y-91105488D01*
X137954919Y-91105501D01*
X138037048Y-91228415D01*
X138037051Y-91228419D01*
X138141580Y-91332948D01*
X138141584Y-91332951D01*
X138264498Y-91415080D01*
X138264511Y-91415087D01*
X138370412Y-91458952D01*
X138401087Y-91471658D01*
X138401091Y-91471658D01*
X138401092Y-91471659D01*
X138546079Y-91500500D01*
X138546082Y-91500500D01*
X138693920Y-91500500D01*
X138830316Y-91473368D01*
X138838913Y-91471658D01*
X138949390Y-91425897D01*
X138975488Y-91415087D01*
X138975488Y-91415086D01*
X138975495Y-91415084D01*
X139098416Y-91332951D01*
X139111619Y-91319748D01*
X139139363Y-91292005D01*
X139202946Y-91228421D01*
X139202947Y-91228420D01*
X139202948Y-91228419D01*
X139202951Y-91228416D01*
X139274413Y-91121464D01*
X139289827Y-91102684D01*
X139551925Y-90840585D01*
X139563852Y-90885095D01*
X139609930Y-90964905D01*
X139675095Y-91030070D01*
X139754905Y-91076148D01*
X139799412Y-91088073D01*
X139461589Y-91425896D01*
X139461589Y-91425897D01*
X139511051Y-91458947D01*
X139511060Y-91458952D01*
X139656648Y-91519256D01*
X139656656Y-91519258D01*
X139811202Y-91549999D01*
X139811206Y-91550000D01*
X139968794Y-91550000D01*
X139968797Y-91549999D01*
X140123343Y-91519258D01*
X140123351Y-91519256D01*
X140268939Y-91458952D01*
X140318410Y-91425897D01*
X139980587Y-91088073D01*
X140025095Y-91076148D01*
X140104905Y-91030070D01*
X140170070Y-90964905D01*
X140216148Y-90885095D01*
X140228073Y-90840586D01*
X140490172Y-91102685D01*
X140505593Y-91121475D01*
X140577048Y-91228415D01*
X140577051Y-91228419D01*
X140681580Y-91332948D01*
X140681584Y-91332951D01*
X140804498Y-91415080D01*
X140804511Y-91415087D01*
X140910412Y-91458952D01*
X140941087Y-91471658D01*
X140941091Y-91471658D01*
X140941092Y-91471659D01*
X141086079Y-91500500D01*
X141086082Y-91500500D01*
X141233920Y-91500500D01*
X141370316Y-91473368D01*
X141378913Y-91471658D01*
X141489390Y-91425897D01*
X141515488Y-91415087D01*
X141515488Y-91415086D01*
X141515495Y-91415084D01*
X141638416Y-91332951D01*
X141651619Y-91319748D01*
X141707319Y-91264049D01*
X141768642Y-91230564D01*
X141838334Y-91235548D01*
X141882681Y-91264049D01*
X141951580Y-91332948D01*
X141951584Y-91332951D01*
X142074498Y-91415080D01*
X142074511Y-91415087D01*
X142180412Y-91458952D01*
X142211087Y-91471658D01*
X142211091Y-91471658D01*
X142211092Y-91471659D01*
X142356079Y-91500500D01*
X142356082Y-91500500D01*
X142503920Y-91500500D01*
X142640316Y-91473368D01*
X142648913Y-91471658D01*
X142759390Y-91425897D01*
X142785488Y-91415087D01*
X142785488Y-91415086D01*
X142785495Y-91415084D01*
X142820842Y-91391465D01*
X142887519Y-91370588D01*
X142954899Y-91389072D01*
X142992834Y-91425675D01*
X143005448Y-91444552D01*
X143071769Y-91488867D01*
X143071770Y-91488868D01*
X143130247Y-91500499D01*
X143130250Y-91500500D01*
X143130252Y-91500500D01*
X144269750Y-91500500D01*
X144269751Y-91500499D01*
X144284568Y-91497552D01*
X144328229Y-91488868D01*
X144328229Y-91488867D01*
X144328231Y-91488867D01*
X144394552Y-91444552D01*
X144438867Y-91378231D01*
X144438867Y-91378229D01*
X144438868Y-91378229D01*
X144450499Y-91319752D01*
X144450500Y-91319750D01*
X144450500Y-90180249D01*
X144450499Y-90180247D01*
X144438868Y-90121770D01*
X144438867Y-90121769D01*
X144394552Y-90055447D01*
X144328230Y-90011132D01*
X144328229Y-90011131D01*
X144269752Y-89999500D01*
X144269748Y-89999500D01*
X143130252Y-89999500D01*
X143130247Y-89999500D01*
X143071770Y-90011131D01*
X143071769Y-90011132D01*
X143005446Y-90055448D01*
X142992833Y-90074325D01*
X142939219Y-90119129D01*
X142869894Y-90127834D01*
X142820843Y-90108534D01*
X142785499Y-90084918D01*
X142785488Y-90084912D01*
X142648917Y-90028343D01*
X142648907Y-90028340D01*
X142503920Y-89999500D01*
X142503918Y-89999500D01*
X142356082Y-89999500D01*
X142356080Y-89999500D01*
X142211092Y-90028340D01*
X142211082Y-90028343D01*
X142074511Y-90084912D01*
X142074498Y-90084919D01*
X141951584Y-90167048D01*
X141951580Y-90167051D01*
X141882681Y-90235951D01*
X141821358Y-90269436D01*
X141751666Y-90264452D01*
X141707319Y-90235951D01*
X141638419Y-90167051D01*
X141638415Y-90167048D01*
X141515501Y-90084919D01*
X141515488Y-90084912D01*
X141378917Y-90028343D01*
X141378907Y-90028340D01*
X141233920Y-89999500D01*
X141233918Y-89999500D01*
X141086082Y-89999500D01*
X141086080Y-89999500D01*
X140941092Y-90028340D01*
X140941082Y-90028343D01*
X140804511Y-90084912D01*
X140804498Y-90084919D01*
X140681584Y-90167048D01*
X140681580Y-90167051D01*
X140577051Y-90271580D01*
X140505593Y-90378524D01*
X140490172Y-90397313D01*
X140228073Y-90659412D01*
X140216148Y-90614905D01*
X140170070Y-90535095D01*
X140104905Y-90469930D01*
X140025095Y-90423852D01*
X139980586Y-90411926D01*
X140318410Y-90074102D01*
X140268940Y-90041048D01*
X140123351Y-89980743D01*
X140123343Y-89980741D01*
X139968797Y-89950000D01*
X139811202Y-89950000D01*
X139656656Y-89980741D01*
X139656648Y-89980743D01*
X139511061Y-90041047D01*
X139461588Y-90074102D01*
X139799413Y-90411925D01*
X139754905Y-90423852D01*
X139675095Y-90469930D01*
X139609930Y-90535095D01*
X139563852Y-90614905D01*
X139551926Y-90659413D01*
X139289827Y-90397314D01*
X139284269Y-90387368D01*
X139274406Y-90378523D01*
X139202954Y-90271588D01*
X139202948Y-90271580D01*
X139098419Y-90167051D01*
X139098415Y-90167048D01*
X138975501Y-90084919D01*
X138975488Y-90084912D01*
X138838917Y-90028343D01*
X138838907Y-90028340D01*
X138693920Y-89999500D01*
X138693918Y-89999500D01*
X138546082Y-89999500D01*
X138546080Y-89999500D01*
X138401092Y-90028340D01*
X138401082Y-90028343D01*
X138264511Y-90084912D01*
X138264498Y-90084919D01*
X138141584Y-90167048D01*
X138141580Y-90167051D01*
X138037051Y-90271580D01*
X138037048Y-90271584D01*
X137954919Y-90394498D01*
X137954912Y-90394511D01*
X137898343Y-90531082D01*
X137898340Y-90531092D01*
X137869500Y-90676079D01*
X137869500Y-90676082D01*
X137869500Y-90823918D01*
X137869500Y-90823920D01*
X137869499Y-90823920D01*
X104516139Y-90823920D01*
X104443739Y-90768366D01*
X104419483Y-90749754D01*
X104419482Y-90749753D01*
X104419479Y-90749751D01*
X104291876Y-90676079D01*
X104181028Y-90612080D01*
X104181017Y-90612075D01*
X103926630Y-90506704D01*
X103789385Y-90469930D01*
X103660666Y-90435440D01*
X103660660Y-90435439D01*
X103660655Y-90435438D01*
X103387684Y-90399501D01*
X103387679Y-90399500D01*
X103387674Y-90399500D01*
X103112326Y-90399500D01*
X103112320Y-90399500D01*
X103112315Y-90399501D01*
X102839344Y-90435438D01*
X102839337Y-90435439D01*
X102839334Y-90435440D01*
X102783125Y-90450500D01*
X102573369Y-90506704D01*
X102318982Y-90612075D01*
X102318971Y-90612080D01*
X102080516Y-90749754D01*
X101862073Y-90917370D01*
X101862066Y-90917376D01*
X101667376Y-91112066D01*
X101667370Y-91112073D01*
X101499756Y-91330513D01*
X101499752Y-91330518D01*
X101499751Y-91330521D01*
X101454424Y-91409028D01*
X101403858Y-91457242D01*
X101335251Y-91470464D01*
X101270387Y-91444496D01*
X101229859Y-91387582D01*
X101223042Y-91346126D01*
X101244034Y-88467910D01*
X101264207Y-88401019D01*
X101317344Y-88355650D01*
X101367637Y-88344819D01*
X178875115Y-88102455D01*
X178942213Y-88121929D01*
G37*
%TD.AperFunction*%
%TD*%
M02*
