M48
; DRILL file {KiCad 9.0.7} date 2026-04-27T23:30:44+0200
; FORMAT={-:-/ absolute / metric / decimal}
; #@! TF.CreationDate,2026-04-27T23:30:44+02:00
; #@! TF.GenerationSoftware,Kicad,Pcbnew,9.0.7
; #@! TF.FileFunction,Plated,1,2,PTH
FMAT,2
METRIC
; #@! TA.AperFunction,Plated,PTH,ViaDrill
T1C0.300
; #@! TA.AperFunction,Plated,PTH,ComponentDrill
T2C0.330
; #@! TA.AperFunction,Plated,PTH,ComponentDrill
T3C0.700
; #@! TA.AperFunction,Plated,PTH,ComponentDrill
T4C0.800
; #@! TA.AperFunction,Plated,PTH,ComponentDrill
T5C1.000
; #@! TA.AperFunction,Plated,PTH,ComponentDrill
T6C1.100
; #@! TA.AperFunction,Plated,PTH,ComponentDrill
T7C1.600
; #@! TA.AperFunction,Plated,PTH,ComponentDrill
T8C2.200
%
G90
G05
T1
X105.025Y-111.025
X105.025Y-111.875
X105.025Y-112.775
X105.082Y-135.35
X105.082Y-136.82
X105.082Y-138.29
X105.082Y-139.761
X105.082Y-141.231
X105.082Y-142.701
X105.082Y-144.171
X105.082Y-145.641
X105.082Y-147.516
X106.533Y-135.35
X106.585Y-147.516
X107.967Y-135.35
X107.975Y-100.275
X108.089Y-147.516
X108.95Y-114.855
X109.4Y-135.35
X109.475Y-100.275
X109.592Y-147.516
X110.52Y-114.925
X110.833Y-135.35
X111.096Y-147.516
X112.15Y-114.95
X112.267Y-135.35
X112.375Y-111.825
X112.599Y-147.516
X113.7Y-135.35
X113.85Y-111.875
X114.103Y-147.516
X116.225Y-128.635
X118.9Y-136.9
X119.8Y-136.9
X119.921Y-142.043
X120.65Y-136.9
X120.771Y-142.043
X121.225Y-147.475
X121.575Y-126.0
X121.671Y-142.043
X124.125Y-126.075
X126.325Y-95.55
X127.125Y-95.55
X127.25Y-105.25
X127.25Y-107.75
X127.25Y-115.733
X127.25Y-115.733
X127.762Y-117.34
X127.762Y-118.44
X127.762Y-119.39
X127.762Y-120.34
X127.762Y-121.39
X127.762Y-122.44
X127.862Y-116.19
X127.862Y-123.59
X127.975Y-95.55
X128.012Y-115.19
X128.362Y-114.24
X128.412Y-124.54
X129.012Y-113.39
X129.312Y-125.34
X129.912Y-112.84
X130.562Y-125.84
X131.012Y-112.64
X131.812Y-125.94
X132.162Y-112.69
X132.862Y-125.64
X133.262Y-113.24
X133.912Y-124.84
X134.112Y-113.99
X134.412Y-123.79
X134.562Y-114.94
X134.662Y-115.89
X134.812Y-122.79
X135.512Y-115.89
X135.55Y-143.15
X135.55Y-143.95
X135.6Y-144.8
X135.762Y-122.39
X136.463Y-115.89
X136.475Y-95.575
X136.512Y-116.74
X136.762Y-122.39
X136.912Y-121.49
X137.275Y-95.575
X138.125Y-95.575
X138.255Y-122.1
X138.981Y-122.776
X139.5Y-111.675
X139.556Y-113.125
X143.2Y-118.55
X143.225Y-121.55
X146.375Y-139.725
X149.5Y-111.175
X150.6Y-118.05
X150.9Y-114.65
X151.45Y-118.7
X152.4Y-126.325
X153.0Y-116.0
X153.534Y-122.375
X153.65Y-116.6
X154.375Y-128.175
X154.525Y-139.275
X154.65Y-126.35
X154.734Y-122.375
X155.535Y-121.375
X155.65Y-128.15
X155.725Y-126.4
X156.625Y-138.175
X157.135Y-121.375
X158.65Y-103.3
X158.656Y-104.55
X159.9Y-104.55
X159.95Y-108.0
X161.25Y-104.5
X162.782Y-133.73
X162.832Y-134.48
X162.832Y-135.23
X165.025Y-132.9
X165.25Y-104.25
X165.7Y-139.625
X165.75Y-140.475
X165.75Y-141.275
X167.075Y-131.942
X167.6Y-133.1
X168.16Y-131.873
X169.425Y-144.107
X170.417Y-131.373
X170.775Y-144.093
X171.775Y-131.265
T2
X166.925Y-136.892
X166.925Y-138.192
X168.225Y-136.892
X168.225Y-138.192
X169.525Y-136.892
X169.525Y-138.192
T3
X138.62Y-90.75
X139.89Y-90.75
X141.16Y-90.75
X142.43Y-90.75
X143.7Y-90.75
X146.955Y-147.625
X148.225Y-147.625
X159.205Y-147.95
X160.475Y-147.95
T4
X131.312Y-116.8
X131.312Y-121.68
T5
X108.21Y-123.48
X108.21Y-126.25
X108.21Y-129.02
X108.21Y-131.79
X111.05Y-122.095
X111.05Y-124.865
X111.05Y-127.635
X111.05Y-130.405
X111.05Y-133.175
X157.56Y-100.275
X158.945Y-97.435
X160.33Y-100.275
X161.715Y-97.435
X163.1Y-100.275
X164.485Y-97.435
X165.87Y-100.275
X167.255Y-97.435
X168.64Y-100.275
T6
X142.0Y-95.5
X142.0Y-100.0
X143.625Y-143.975
X146.165Y-143.975
X148.5Y-95.5
X148.5Y-100.0
X148.705Y-143.975
T7
X166.725Y-124.3
X171.805Y-124.3
T8
X102.7Y-146.75
X102.7Y-146.75
X103.25Y-92.5
X103.25Y-92.5
X175.5Y-146.25
X175.5Y-146.25
X176.0Y-92.15
M30
